<svg transform="scale(2)" version="1.1" id="Layer_1" xmlns="http://www.w3.org/2000/svg" xmlns:xlink="http://www.w3.org/1999/xlink" x="0px" y="0px" viewBox="0 0 500 500" xml:space="preserve" class="show_show__wrapper__graphic__5Waiy "><title>React</title><style type="text/css">
	.st0{fill:#FFD348;}
	.st1{opacity:0.32;fill:url(#SVGID_1_);enable-background:new    ;}
	.st2{opacity:0.32;fill:url(#SVGID_00000161633500089824256570000008145158933929662397_);enable-background:new    ;}
	.st3{fill:#159E97;}
	.st4{fill:#FFB7A2;}
	.st5{fill:#FE6162;}
	.st6{fill:#27D9D3;}
	.st7{fill:#FCAA97;}
	.st8{fill:#F1F1F1;}
	.st9{fill:#68E1FD;}
	.st10{opacity:0.5;enable-background:new    ;}
	.st11{fill:#B3B3B3;}
</style><path class="st0" id="Base" d="M52.8,329.6l175.7,101.5c4.5,2.6,10.1,2.6,14.6,0l202.8-115.2c3.9-2.3,5.3-7.3,3-11.2
	c-0.7-1.3-1.8-2.3-3-3L265.3,197.2c-1.8-1-4-1-5.8,0L52.7,319.8c-2.7,1.6-3.6,5.1-2,7.8C51.2,328.4,51.9,329.1,52.8,329.6
	L52.8,329.6z"></path><g id="Shadow"><linearGradient id="SVGID_1_" gradientUnits="userSpaceOnUse" x1="200.8753" y1="-785.2816" x2="242.8253" y2="-811.7916" gradientTransform="matrix(1 0 0 1 0 1164.6299)"><stop offset="0" style="stop-color: rgb(241, 241, 241); stop-opacity: 0;"></stop><stop offset="0.98" style="stop-color: rgb(0, 0, 0);"></stop></linearGradient><path class="st1" d="M271.2,352.9c-0.2-0.3-0.2-0.7,0-1c0.2-0.4-5.1-1.4-4.9-1.8c0.2-0.9-3.1-1-2.9-1.9
		c-8.9-3.9-10.7-5.3-17.4-11.8l-71.3,39.7l29.3,16.7l66.7-37.9C270.9,354.3,271,353.6,271.2,352.9z"></path><linearGradient id="SVGID_00000171696594576472125980000010268236859331088271_" gradientUnits="userSpaceOnUse" x1="357.1785" y1="-827.7055" x2="405.8685" y2="-856.1556" gradientTransform="matrix(1 0 0 1 0 1164.6299)"><stop offset="0" style="stop-color: rgb(241, 241, 241); stop-opacity: 0;"></stop><stop offset="0.98" style="stop-color: rgb(0, 0, 0);"></stop></linearGradient><path d="
		M429.8,310.2c-0.2-0.3-0.2-0.7,0-1l0.6-1.1c0.2-0.9,0.5-1.7,0.7-2.6c-8.9-3.9-19.8-5.3-26.6-11.9l-71.3,39.7l29.3,16.7l66.8-37.9
		C429.4,311.6,429.6,310.9,429.8,310.2z" style="opacity: 0.32; fill: url(&quot;#SVGID_00000171696594576472125980000010268236859331088271_&quot;);"></path></g><g id="Character"><path class="st3" d="M266.4,202.7c1.4,1.1,6.9,38.7,6,41.4s-9.2,6.8-9.2,6.8"></path><path class="st4" d="M216.6,202.3l-0.5-1c0.4-0.2,0.5-0.7,0.4-1.1c-0.4-1-0.9-2-1.4-3.1c0-0.1,0-0.3,0-0.4c-0.6-2.3-0.9-4.6-0.8-7
		c0.2-1.9,0.8-3.7,1-5.6c0-0.5-0.4-0.8-0.9-0.8c-0.1,0-0.2,0-0.4,0.1c-0.4,0.2-0.8,0.6-1,1c-0.6,0.9-1,1.8-1.1,2.9
		c0-0.4-0.1-0.9-0.3-1.3l-0.4-1.6c-0.2-0.8-0.5-1.6-0.8-2.4c-0.4-0.7-1.2-1-1.6-0.6c-0.6,0.7,0,2,0.1,2.8c0.1,0.8,0.3,1.6,0.5,2.4
		c-0.3-0.8-1-2.1-1.4-3c-0.3-0.7-1.2-3-2.3-2.7s-0.5,1.9-0.3,2.7l0.8,2.2c0.2,0.6,0.5,1.5,0.8,2.1c0,0-1.1-1.6-1.6-2.4
		s-0.9-1.6-1.9-1.3c-0.6,0.2-0.6,1.1-0.3,1.7c0.8,1.4,1.6,2.9,2.5,4.2c-0.6-0.5-1.1-1.1-1.7-1.6c-0.3-0.3-0.9-0.3-1.2,0.1
		c0,0,0,0,0,0c-0.2,0.2-0.2,0.4-0.2,0.6c0,0.2,0,0.3,0.1,0.4l7.4,10.7c0.7,1.7,1.7,3.2,3,4.6c0.7,0.8,1.9-0.4,1.1-1.1l-0.1-0.1v-0.1
		c0.2-0.1,0.5-0.2,0.6-0.4l0,0c0.1,0.1,0.2,0.1,0.2,0.1c0.2,0.4,0.7,0.6,1.1,0.4C216.6,203.3,216.8,202.8,216.6,202.3
		C216.6,202.3,216.6,202.3,216.6,202.3L216.6,202.3z"></path><path d="M210.9,187.9c-1.3,1-2,2.6-1.8,4.2c0,0.4,0.6,0.4,0.6,0c-0.1-1.5,0.5-2.9,1.6-3.8C211.6,188.2,211.1,187.8,210.9,187.9z"></path><path d="M210.1,187.1c-0.4-1.5-0.8-3-1-4.5c0-0.4-0.6-0.2-0.6,0.2c0.3,1.5,0.6,3,1,4.5c0,0.1,0.2,0.2,0.3,0.2
		C210,187.4,210.1,187.3,210.1,187.1L210.1,187.1z"></path><path d="M207.7,188.4c-0.8-1.7-1.4-3.4-1.9-5.2c0-0.1-0.2-0.2-0.3-0.2c0,0,0,0,0,0c-0.2,0-0.2,0.2-0.2,0.4c0.5,1.8,1.1,3.6,1.9,5.3
		C207.3,189,207.8,188.7,207.7,188.4z"></path><path d="M206.8,190.6c-1.2-1.4-2.2-3-3-4.6c-0.2-0.3-0.7,0-0.5,0.3c0.8,1.7,1.9,3.3,3.1,4.7C206.7,191.3,207,190.9,206.8,190.6z"></path><path d="M261,328.5c0,0-0.4,11.3,1.7,14.7s12.4,9.2,9.7,11.6s-9.2,1.2-11.3-1.4c-1.4-1.9-2.7-3.9-3.8-6v4.3c0,0-4.3-2.6-4.3-2.7
		s-1-25.5-1-25.5"></path><path d="M245.4,333.3c0,0-0.4,11.3,1.6,14.7s13,11.2,10.2,13.6s-9.2,0.2-11.8-3.1c-1.5-1.9-2.8-4-3.9-6.2v4.3c0,0-4.3-2.5-4.3-2.7
		s-1-25.5-1-25.5"></path><path class="st5" d="M265.9,238c0.5,1.4,5.6,84.2,0.3,94.8c-4.3,2.3-9.1,3.3-14,3l-1.8,6.1c0,0-13.1,4.1-22.5,0.1
		c0,0-5.5-74,11.2-104.3"></path><path class="st6" d="M266,237.1c0.3-3.8,0.3-8.8,0.4-9.7c0.2-2.3,0.3-4.5,0.4-6.8c0.2-2.7,0.3-5.5,0.4-8.2
		c0.2-3.9,0.6-8.6-2.1-11.8s-9.1-4.5-13.3-4c-4.4,0.8-8.2,3.2-10.9,6.7c-1.4,11.4-2.1,22.9-1.9,34.4
		C247.2,240.1,259.6,242.4,266,237.1z"></path><path class="st6" d="M251.2,197.3c-3.4,0.2-6.6,1.2-9.5,3c-2.2,1.4-3.4,3.7-5.8,4.9c-3.2,1.6-7.8,1.6-10.4-1.1
		c-1.4-1.5-2.8-3.1-4-4.8c-1-1.2-5-7.8-7.1-7c-2.5,0.9-6,4.4-6.2,6.4s10.3,22.6,19.6,24.1c5.8,0.8,11.7-0.5,16.6-3.7"></path><path class="st7" d="M249,193.7v5.9c2.3,0.7,4.8,0.7,7.1,0v-5.3"></path><path class="st4" d="M261.4,180.1c0.4,0.1,3,17.7-4.3,17.8s-8.7-5.6-8.9-7.1s2.1-5.9,2.8-7.6S259.6,179.6,261.4,180.1z"></path><path class="st0" d="M262.3,178.3c-2.2-4-10.7-4.9-16.7,0.6c-1.5,1.6-2.4,3.8-2.4,6c0.3,4.5,3,8.4,7,10.4l0,0v-0.6
		c-0.7-3.3-0.4-6.7,1-9.7c1.4-2.8,4.4-3.6,7.3-4c0.9-0.2,1.9-0.3,2.8-0.3l0.9,4.5C263.7,183.1,263.7,180.4,262.3,178.3z"></path><circle class="st0" cx="240.4" cy="180.4" r="5.6"></circle><path class="st0" d="M262.2,183.7h-6.9l-0.6-2.1l-0.6,2.6l-2,0.1c0,0-0.1,10.6-1.6,10.9s-3.6-4.3-3.9-7s1.2-8.4,6.2-10
		C259.1,176.3,261.9,178.8,262.2,183.7z"></path><path class="st8" d="M256.6,257.8c-0.9,26-2.7,52-5.4,78c-0.1,0.8,1.2,0.8,1.3,0c2.7-25.9,4.5-51.9,5.4-78
		C257.9,257,256.7,257,256.6,257.8z"></path></g><g id="Plant"><path class="st9" d="M426.9,276.8c-1-2.2-5.5-3.8-10.9-3.8s-10,1.7-10.9,4c-6.3,8.8-12.5,23.2-4.8,32.8c3.8,4.4,9.4,7,15.2,6.9h0.9
		c5.8,0.1,11.4-2.5,15.2-6.9C439.6,300.1,433.3,285.6,426.9,276.8z"></path><ellipse class="st10" cx="416.1" cy="277.7" rx="11.1" ry="4.8"></ellipse><path class="st5" d="M429,237.5c-6.8,11.6-11.1,24.5-12.3,37.9c0-16.2-1.5-32.3-4.4-48.3c-0.1-0.6-1-0.3-0.9,0.2
		c3.3,17.8,4.8,35.9,4.4,54c0,0.2,0.2,0.4,0.4,0.4c0,0,0,0,0,0c0.1,0,0.1,0,0.2,0v0.4c0,0.2,0.2,0.5,0.4,0.5c0.2,0,0.5-0.2,0.5-0.4
		c0,0,0,0,0,0c0.3-15.6,4.7-30.8,12.6-44.2c0.1-0.2,0-0.5-0.2-0.6C429.4,237.2,429.1,237.3,429,237.5L429,237.5z"></path><path class="st5" d="M422,252.2c0,0,6.9-22,21.5-30.1c0,0-3,4.4-1.6,7.9s3.6,9.9-3.4,13.5s-10.9,0-10.3,7c0.6,7,3.4,10.3-1.1,13.7
		s-8.3,6.3-9.8,13.6C417.4,277.7,419.1,259.5,422,252.2z"></path><path class="st5" d="M415.5,249.9c0,0-2.8-33.8-8.8-42.4c0.4,3.3-0.1,6.6-1.7,9.5c-2.6,4.9-5.4,6.6-3.9,13s7.5,5.1,7,11.5
		s-5.6,5.2-3.1,13.2c2.5,8,11.1,13.3,11.1,13.3"></path></g><g id="Frame"><path class="st5" d="M210.8,86.6l32.9-19c2.4-1.4,5.4-0.6,6.8,1.8c0.4,0.8,0.7,1.6,0.7,2.5v21.4c0,1.8-1,3.4-2.5,4.3L215.8,117
		c-2.4,1.4-5.4,0.6-6.8-1.8c-0.5-0.8-0.7-1.6-0.7-2.5V90.9C208.3,89.2,209.2,87.5,210.8,86.6z"></path><path class="st8" d="M226.6,84.3v18.1c0,0.4,0.4,0.8,0.8,0.8c0.2,0,0.3-0.1,0.5-0.2l13.4-11.1c0.3-0.3,0.4-0.8,0.1-1.1
		c-0.1-0.1-0.1-0.1-0.2-0.2l-13.4-7c-0.4-0.2-0.8-0.1-1,0.3C226.7,84,226.7,84.2,226.6,84.3z"></path><path class="st9" d="M125.5,199.5v134.8c0,4.6,3.6,8.3,8.2,8.3c1.5,0,3-0.4,4.3-1.2l193.8-114.4c1.4-0.8,2.2-2.3,2.2-3.8v-132
		c0-4.1-3.3-7.5-7.5-7.5c-1.3,0-2.6,0.3-3.7,1l-195,110.9C126.4,196.4,125.5,197.9,125.5,199.5z M314.5,215.3l-167,96.2
		c-2.1,1.2-4.8,0.5-6.1-1.6c-0.4-0.7-0.6-1.5-0.6-2.2V206.1c0-1.6,0.9-3.1,2.2-3.9l167-95.5c2.1-1.2,4.9-0.5,6.1,1.7
		c0.4,0.7,0.6,1.4,0.6,2.2v100.9C316.8,213.1,315.9,214.5,314.5,215.3z"></path><path class="st11" d="M151.7,302.3l138.8-80.1l19.8-11.4c0.5-0.3,0.7-0.9,0.4-1.4c-0.3-0.5-0.9-0.7-1.3-0.4c0,0-0.1,0-0.1,0.1
		l-138.8,80.1l-19.8,11.4c-0.5,0.3-0.7,0.9-0.4,1.3c0,0,0,0.1,0.1,0.1C150.6,302.4,151.2,302.6,151.7,302.3L151.7,302.3z"></path><path class="st0" d="M95.4,189.6V250c0,1.9,1.5,3.4,3.4,3.4c0.6,0,1.2-0.2,1.7-0.4l84-48.3c1.1-0.6,1.7-1.7,1.7-2.9v-61.2
		c0-1.9-1.5-3.4-3.4-3.4c-0.6,0-1.1,0.2-1.6,0.4l-83.4,48C96.3,186.4,95.4,187.9,95.4,189.6z"></path><polygon class="st8" points="107.2,188.8 107.2,241.9 177.1,201.7 177.1,148.6 	"></polygon><path class="st6" d="M107.3,241.9l16.8-37c1.7-3.8,6.2-5.5,10-3.8l8.2,3.7l16-27c1.5-2.5,4.7-3.3,7.1-1.9c0.2,0.1,0.3,0.2,0.5,0.3
		l11.3,8.5v17L107.3,241.9z"></path><path class="st5" d="M311.7,157l32.9-19c2.4-1.4,5.5-0.5,6.8,1.9c0.4,0.7,0.7,1.6,0.7,2.4v21.4c0,1.8-0.9,3.4-2.5,4.3l-32.9,19.4
		c-2.4,1.4-5.4,0.6-6.8-1.8c-0.4-0.8-0.7-1.6-0.7-2.5v-21.8C309.2,159.5,310.1,157.9,311.7,157z"></path><polyline class="st5" points="328.1,179.6 334.1,186.7 339,173 	"></polyline><path class="st8" d="M330.8,161.1c0,0-4-6.5-8-1.6c-2.3,2.8,1.9,11.4,7.8,12.3c5.4,0.8,12.9-17.6,5.4-17.8
		C331.1,154,330.8,161.1,330.8,161.1z"></path><ellipse transform="matrix(0.2761 -0.9611 0.9611 0.2761 -179.0876 363.6456)" cx="151.9" cy="300.7" rx="4.6" ry="3.5"></ellipse></g></svg>