<svg transform="scale(2)" version="1.1" id="Layer_1" xmlns="http://www.w3.org/2000/svg" xmlns:xlink="http://www.w3.org/1999/xlink" x="0px" y="0px" viewBox="0 0 500 500" xml:space="preserve" class="show_show__wrapper__graphic__5Waiy "><title>React</title><style type="text/css">
	.st0{fill:#FC857A;}
	.st1{opacity:0.32;fill:url(#SVGID_1_);enable-background:new    ;}
	.st2{opacity:0.32;fill:url(#SVGID_00000017515945277469431490000016586936767282301090_);enable-background:new    ;}
	.st3{opacity:0.32;fill:url(#SVGID_00000106139937276201527900000000510551000637656752_);enable-background:new    ;}
	.st4{fill:#663A12;}
	.st5{fill:#68E1FD;}
	.st6{opacity:0.55;fill:#444A93;enable-background:new    ;}
	.st7{opacity:0.22;fill:#444A93;enable-background:new    ;}
	.st8{fill:#FDBF30;}
	.st9{fill:#444A93;}
	.st10{fill:#686EBC;}
	.st11{opacity:0.5;fill:#FFFFFF;enable-background:new    ;}
	.st12{fill:#5B5EA5;}
	.st13{fill:#FFC8C5;}
	.st14{fill:#FFC388;}
</style><path class="st0" id="Base" d="M117.4,236.9l-51.8,29.8c-4.4,2.5-6,8.2-3.4,12.7c0.8,1.5,2.1,2.7,3.6,3.5l242.6,135.1
	c3,1.7,6.8,1.5,9.7-0.4l117-78c4.3-2.8,5.4-8.6,2.6-12.9c-0.8-1.2-1.9-2.2-3.1-2.9l-235.6-134c-3-1.7-6.7-1.6-9.7,0.3l-71.3,46.6
	L117.4,236.9z"></path><g id="Shadow"><linearGradient id="SVGID_1_" gradientUnits="userSpaceOnUse" x1="118.6125" y1="-868.8963" x2="157.7625" y2="-911.0663" gradientTransform="matrix(1 0 0 1 0 1164.6299)"><stop offset="0" style="stop-color: rgb(255, 255, 255); stop-opacity: 0;"></stop><stop offset="1" style="stop-color: rgb(175, 43, 39);"></stop></linearGradient><path class="st1" d="M184,228.8l-78.6,47.3l24.1,8.8c18.7-14.7,55.3-32.2,74.1-46.8c-1.9-1.3-3.6-2.6-5.4-3.8
		C182.7,235.4,195.1,240.7,184,228.8z"></path><linearGradient id="SVGID_00000067917372189685201060000002633544030294196626_" gradientUnits="userSpaceOnUse" x1="139.3645" y1="-827.1351" x2="173.8145" y2="-864.2351" gradientTransform="matrix(1 0 0 1 0 1164.6299)"><stop offset="0" style="stop-color: rgb(255, 255, 255); stop-opacity: 0;"></stop><stop offset="1" style="stop-color: rgb(175, 43, 39);"></stop></linearGradient><path d="
		M168.8,276.3l-48.4,37l38.5,21.4c18.7-14.7,44-26.4,62.8-41c-1.9-1.3-3.7-2.6-5.4-3.8C200.7,290.9,179.9,288.2,168.8,276.3z" style="opacity: 0.32; fill: url(&quot;#SVGID_00000067917372189685201060000002633544030294196626_&quot;);"></path><linearGradient id="SVGID_00000065793178088684658510000017482580319947116183_" gradientUnits="userSpaceOnUse" x1="240.9156" y1="-765.6748" x2="275.1656" y2="-802.5647" gradientTransform="matrix(1 0 0 1 0 1164.6299)"><stop offset="0" style="stop-color: rgb(255, 255, 255); stop-opacity: 0;"></stop><stop offset="1" style="stop-color: rgb(175, 43, 39);"></stop></linearGradient><path d="
		M290.2,327.3c-0.2-0.3-0.2-0.7,0-1c0.2-0.4-5.1-1.4-4.9-1.8c0.2-0.9-3.1-1-2.9-1.9c-8.9-3.9-10.7-5.3-17.4-11.8l-66.3,42.6l91,52.1
		l63.6-36.4C353.5,368.2,301,339.1,290.2,327.3z" style="opacity: 0.32; fill: url(&quot;#SVGID_00000065793178088684658510000017482580319947116183_&quot;);"></path></g><g id="Bubble"><path class="st4" d="M254.4,172.9c0,0.6-0.5,9.1-0.5,9.1l-2.3,1.4v-11.4"></path><ellipse class="st4" transform="matrix(0.2089 -0.9779 0.9779 0.2089 67.2027 380.7112)" cx="268.9" cy="148.8" rx="27.9" ry="37.1"></ellipse><ellipse class="st0" transform="matrix(0.2089 -0.9779 0.9779 0.2089 64.63 377.4777)" cx="265.6" cy="148.8" rx="27.9" ry="37.1"></ellipse><path class="st0" d="M252.9,171.3l-1.3,12.1c0,0-11.6-19.4-9.4-21.7S253.4,166.2,252.9,171.3z"></path></g><g id="Phone"><path class="st5" d="M343.5,244.7c-1.3-4.4-4.2-8.1-8.2-10.4c1.2-8.9-5.1-18.8-13-22.3c-1.5-0.7-3-1.1-4.6-1.4
		c-4.3-11.1-18.6-14.6-29.3-11.3c-0.8,0.3-1.7,0.6-2.6,0.9c-0.5-0.4-1.1-0.7-1.7-1c-12.6-6.5-27.6,2.2-31.5,14.9
		c-1,3.3,4.1,4.7,5.1,1.4c2-6.6,7.6-11.6,14.4-12.8c2.7-0.5,5.4-0.3,8,0.6c-2.2,1.4-4.1,3.3-5.5,5.6c-2.3,4-1,9.2,3,11.5
		c0.4,0.3,0.9,0.5,1.4,0.7c5.3,2.1,11.2-1.8,12.6-7.1c0.8-3.3,0.2-6.7-1.7-9.4c2.9-0.9,6-1.3,9-1c5,0.6,9.5,3.1,12.7,7
		c-2.9,0.3-5.6,1.3-7.9,3c-3.8,2.8-5.7,8.4-2.5,12.4s9.5,3.2,13,0.2c2.8-2.4,4.4-6,4.4-9.6c2.4,0.8,4.6,2.2,6.4,4.1
		c2.7,2.8,4.3,6.4,4.7,10.3c0,0.5,0,0.9,0,1.4c-4.4-1-10-0.8-13.2,2.5c-2.6,2.5-2.7,6.6-0.2,9.2c0.6,0.6,1.3,1.1,2.1,1.5
		c4.9,2.4,10.8,0.2,13.9-3.9c0.4-0.6,0.8-1.1,1.1-1.7c2.3,1.6,3.9,3.9,4.8,6.6c2.8,8.9-4,17-13,17.2c-3.4,0.1-3.4,5.4,0,5.3
		C337.8,268.3,347.2,256.9,343.5,244.7z M286.6,212.4c-0.8,2.9-2.9,4-6.1,3.3l-0.4-5.4c0.5-1.4,2.7-2.9,4.9-4
		C286.4,208,287,210.2,286.6,212.4L286.6,212.4z M311.2,221.8c-2.2,2.2-3.2,1.7-2.8-1.7c-1.4-2.4-0.8-3.8,1.9-4
		c1.1-0.4,2.2-0.5,3.4-0.5c0,1.3-0.3,2.6-0.8,3.8C312.5,220.2,311.9,221.1,311.2,221.8L311.2,221.8z M323,240.7
		c-3.8-0.9-1.6-3.3,1.3-3.7c1.5-0.2,3-0.1,4.4,0.2C327.6,239.6,325.8,241.2,323,240.7L323,240.7z"></path><path class="st6" d="M343.5,244.7c-1.3-4.4-4.2-8.1-8.2-10.4c1.2-8.9-5.1-18.8-13-22.3c-1.5-0.7-3-1.1-4.6-1.4
		c-4.3-11.1-18.6-14.6-29.3-11.3c-0.8,0.3-1.7,0.6-2.6,0.9c-0.5-0.4-1.1-0.7-1.7-1c-12.6-6.5-27.6,2.2-31.5,14.9
		c-1,3.3,4.1,4.7,5.1,1.4c2-6.6,7.6-11.6,14.4-12.8c2.7-0.5,5.4-0.3,8,0.6c-2.2,1.4-4.1,3.3-5.5,5.6c-2.3,4-1,9.2,3,11.5
		c0.4,0.3,0.9,0.5,1.4,0.7c5.3,2.1,11.2-1.8,12.6-7.1c0.8-3.3,0.2-6.7-1.7-9.4c2.9-0.9,6-1.3,9-1c5,0.6,9.5,3.1,12.7,7
		c-2.9,0.3-5.6,1.3-7.9,3c-3.8,2.8-5.7,8.4-2.5,12.4s9.5,3.2,13,0.2c2.8-2.4,4.4-6,4.4-9.6c2.4,0.8,4.6,2.2,6.4,4.1
		c2.7,2.8,4.3,6.4,4.7,10.3c0,0.5,0,0.9,0,1.4c-4.4-1-10-0.8-13.2,2.5c-2.6,2.5-2.7,6.6-0.2,9.2c0.6,0.6,1.3,1.1,2.1,1.5
		c4.9,2.4,10.8,0.2,13.9-3.9c0.4-0.6,0.8-1.1,1.1-1.7c2.3,1.6,3.9,3.9,4.8,6.6c2.8,8.9-4,17-13,17.2c-3.4,0.1-3.4,5.4,0,5.3
		C337.8,268.3,347.2,256.9,343.5,244.7z M286.6,212.4c-0.8,2.9-2.9,4-6.1,3.3l-0.4-5.4c0.5-1.4,2.7-2.9,4.9-4
		C286.4,208,287,210.2,286.6,212.4L286.6,212.4z M311.2,221.8c-2.2,2.2-3.2,1.7-2.8-1.7c-1.4-2.4-0.8-3.8,1.9-4
		c1.1-0.4,2.2-0.5,3.4-0.5c0,1.3-0.3,2.6-0.8,3.8C312.5,220.2,311.9,221.1,311.2,221.8L311.2,221.8z M323,240.7
		c-3.8-0.9-1.6-3.3,1.3-3.7c1.5-0.2,3-0.1,4.4,0.2C327.6,239.6,325.8,241.2,323,240.7L323,240.7z"></path><polygon class="st5" points="218.2,341 310.3,393.7 379.6,353.7 379.6,284.9 304.8,242 270.8,260.2 	"></polygon><polygon class="st5" points="379.6,284.9 346.4,304 310.3,393.7 379.6,353.7 	"></polygon><polygon class="st7" points="218.2,341 310.3,393.7 379.6,353.7 379.6,284.9 304.8,242 270.8,260.2 	"></polygon><polygon class="st6" points="379.6,284.9 346.4,304 310.3,393.7 379.6,353.7 	"></polygon><polygon class="st5" points="346.4,304 270.8,260.2 218.2,341 310.3,393.7 	"></polygon><ellipse class="st8" cx="288" cy="324.8" rx="31.3" ry="30.5"></ellipse><ellipse class="st9" transform="matrix(0.6447 -0.7645 0.7645 0.6447 -143.998 314.302)" cx="266.1" cy="312" rx="4.1" ry="3.7"></ellipse><ellipse class="st10" transform="matrix(0.5 -0.866 0.866 0.5 -137.1532 385.4546)" cx="265.2" cy="311.5" rx="4.1" ry="3.7"></ellipse><ellipse class="st9" transform="matrix(0.6447 -0.7645 0.7645 0.6447 -130.8345 323.6395)" cx="282.7" cy="302.6" rx="4.1" ry="3.7"></ellipse><ellipse class="st10" transform="matrix(0.5 -0.866 0.866 0.5 -120.6076 395.1237)" cx="281.9" cy="302" rx="4.1" ry="3.7"></ellipse><ellipse class="st9" transform="matrix(0.6447 -0.7645 0.7645 0.6447 -126.3495 336.998)" cx="299.3" cy="304.4" rx="4.1" ry="3.7"></ellipse><ellipse class="st10" transform="matrix(0.5 -0.866 0.866 0.5 -113.9142 410.4224)" cx="298.5" cy="303.9" rx="4.1" ry="3.7"></ellipse><ellipse class="st9" transform="matrix(0.6447 -0.7645 0.7645 0.6447 -134.984 351.414)" cx="310.5" cy="320.9" rx="4.1" ry="3.7"></ellipse><ellipse class="st10" transform="matrix(0.5 -0.866 0.866 0.5 -122.5943 428.369)" cx="309.7" cy="320.4" rx="4.1" ry="3.7"></ellipse><ellipse class="st9" transform="matrix(0.6447 -0.7645 0.7645 0.6447 -151.1375 354.0931)" cx="305.3" cy="339.6" rx="4.1" ry="3.7"></ellipse><ellipse class="st10" transform="matrix(0.5 -0.866 0.866 0.5 -141.4282 433.2317)" cx="304.5" cy="339.1" rx="4.1" ry="3.7"></ellipse><ellipse class="st9" transform="matrix(0.6447 -0.7645 0.7645 0.6447 -158.7918 320.756)" cx="265.6" cy="331.2" rx="4.1" ry="3.7"></ellipse><ellipse class="st10" transform="matrix(0.5 -0.866 0.866 0.5 -153.9446 394.6304)" cx="264.8" cy="330.6" rx="4.1" ry="3.7"></ellipse><ellipse class="st9" transform="matrix(0.6447 -0.7645 0.7645 0.6447 -162.0487 339.2365)" cx="283.9" cy="343.9" rx="4.1" ry="3.7"></ellipse><ellipse class="st10" transform="matrix(0.5 -0.866 0.866 0.5 -155.8717 416.8226)" cx="283" cy="343.4" rx="4.1" ry="3.7"></ellipse><path class="st9" d="M288,336.8c-7.7-0.2-13.9-6.6-13.7-14.3c0.2-7.7,6.6-13.9,14.3-13.7c7.6,0.2,13.7,6.4,13.7,14
		C302.2,330.6,295.8,336.9,288,336.8z M288,310.2c-6.9,0.2-12.4,6-12.3,12.9s6,12.4,12.9,12.3c6.8-0.2,12.3-5.8,12.3-12.6
		C300.8,315.8,295,310.2,288,310.2z"></path><path class="st5" d="M264.2,234.2c0,0,9,23.2-10.1,37.1s-49,33.6-61.3,36.7s-30.4-5.9-34.1-8.2c0,0,24.6-12.9,32.4-11.5
		c7.8,1,15.7-0.4,22.7-4c4.7-2.8,37.2-25.3,37.9-29S264.2,234.2,264.2,234.2z"></path><path class="st5" d="M246.6,206.9c2.9-0.8,6,0.4,7.7,3c2.1,3.4,4.1,6.9,5.8,10.5c6.3,12.9,6.6,29.1-2.8,40.8
		c-9.1,11.2-21.9,19.5-33.9,27c-52.1,32.5-73.4,5.5-75.1,2.9s-11.4-7-0.3-19.3s23.6-7.7,25.7-4.7s8.5,16.9,17.4,14.7
		s45.9-26.1,46.6-30.9s-8.6-16.2-10.2-17.2S224.4,212.6,246.6,206.9z"></path><path class="st5" d="M227.6,233c1.4,0.9,3,1.3,4.6,1.2c9-0.3,16.9-7.5,21.6-14.8c2.4-3.7,3.2-7.7-0.7-10.7c-7.7-6-16.8-1.5-22.4,5
		c-2.4,2.7-4.1,5.9-5.1,9.4c-0.7,2.8-1.2,6.4,0.9,8.8C226.8,232.4,227.2,232.7,227.6,233z"></path><path class="st5" d="M146,289c1.4,0.9,3,1.3,4.6,1.2c9-0.3,16.9-7.5,21.5-14.8c2.4-3.7,3.2-7.7-0.7-10.7c-7.7-6-16.8-1.5-22.4,5
		c-2.4,2.7-4.1,5.9-5.1,9.4c-0.7,2.8-1.2,6.4,0.9,8.8C145.2,288.4,145.6,288.7,146,289z"></path><path class="st11" d="M227.6,233c1.4,0.9,3,1.3,4.6,1.2c9-0.3,16.9-7.5,21.6-14.8c2.4-3.7,3.2-7.7-0.7-10.7c-7.7-6-16.8-1.5-22.4,5
		c-2.4,2.7-4.1,5.9-5.1,9.4c-0.7,2.8-1.2,6.4,0.9,8.8C226.8,232.4,227.2,232.7,227.6,233z"></path><path class="st11" d="M146,289c1.4,0.9,3,1.3,4.6,1.2c9-0.3,16.9-7.5,21.5-14.8c2.4-3.7,3.2-7.7-0.7-10.7c-7.7-6-16.8-1.5-22.4,5
		c-2.4,2.7-4.1,5.9-5.1,9.4c-0.7,2.8-1.2,6.4,0.9,8.8C145.2,288.4,145.6,288.7,146,289z"></path></g><g id="Character"><path class="st12" d="M175.5,228.1c0,0-0.2,8.6,0.9,9.1s7.5,9,8,10.3c1.5,4.4-6.6,6.4-9.6,4.9s-7.8-9.8-8.2-11.9s-2.8-15-2.8-15"></path><path class="st12" d="M187.7,220.6c0,0-0.2,8.6,0.9,9.1s11.6,6.8,12.2,8.1c1.7,4.1-6.6,5.6-9.5,4.2s-12.1-6.9-12.5-9
		s-2.8-15-2.8-15"></path><path class="st13" d="M154.8,137.8c0,0-6.2,9.7-5.3,18.3s9.5,77.6,15.1,76.9s8.9,0.1,11.8-7.2c0,0,9.4,2.1,12.3-5.3
		c0,0-2.2-64.7-7.6-74.8S154.8,137.8,154.8,137.8z"></path><path class="st14" d="M234.5,112.5c-1.6-0.4-3.1-0.7-4.7-0.8c1.6,0,3.2,0.2,4.8,0.5c1.7,0.3,1.9-2.3,0.2-2.6l-0.8-0.1
		c0.5-0.6,0.4-1.5-0.2-2c0,0,0,0-0.1,0c-0.2-0.1-0.4-0.2-0.6-0.3c-3.6-0.4-7.3-0.1-10.8,1c0.1-1.3,0.1-2.7-0.1-4
		c0-0.2-0.1-0.4-0.3-0.6c-0.4-0.7-1.2-0.9-1.9-0.6c-0.3,0.2-0.6,0.5-0.7,0.9c-0.4,2.1-0.2,4.2-0.6,6.3c-0.1,0.4-0.2,0.7-0.3,1.1
		c-1.6,1.7-3.2,3.4-4.8,5.1c-1.1,1.2,0.9,2.7,2.1,1.6c0.2,0.3,0.4,0.5,0.7,0.6l-0.2,0.2c-0.3,0.3-0.3,0.8-0.1,1.2l-0.2,0.2
		c-1.2,1.2,0.5,3.2,1.7,2l0.4-0.4c0.4,0.3,1.1,0.3,1.4-0.2c0,0,0-0.1,0.1-0.1l0.1-0.2c1-1.6,2.4-3,4.1-4l0.5-0.3
		c1.4-0.5,2.9-0.8,4.4-0.9c1.1,0.3,2.2,0.6,3.3,1c0.7,0.2,1.4-0.2,1.6-0.8c0.2-0.6-0.1-1.3-0.6-1.6l0.7,0.2
		C235.2,115.3,236.1,112.9,234.5,112.5z"></path><path class="st4" d="M234.1,109.1c-1.7-0.2-3.5-0.3-5.2-0.2c-0.4,0-0.5,0.7,0,0.7c1.7-0.1,3.5,0,5.2,0.2
		C234.6,109.8,234.6,109.2,234.1,109.1z"></path><path class="st4" d="M234.4,111.8c-1.9-0.3-3.7-0.4-5.6-0.4c-0.2,0-0.3,0.2-0.3,0.3c0,0.2,0.2,0.3,0.3,0.3l0,0
		c1.9,0,3.7,0.1,5.6,0.4C234.8,112.5,234.8,111.8,234.4,111.8z"></path><path class="st4" d="M227,112.6c-2.1-0.6-4.3-0.2-6,1.2c-0.4,0.2,0.1,0.7,0.4,0.5c1.5-1.2,3.5-1.5,5.4-1c0.2,0.1,0.4,0,0.4-0.2
		c0,0,0,0,0,0C227.3,112.9,227.2,112.7,227,112.6C227,112.7,227,112.6,227,112.6z"></path><path class="st4" d="M228.1,112.5c-0.2-1.5-1.1-2.9-2.5-3.6c-0.4-0.2-0.6,0.5-0.2,0.6c1.2,0.6,2,1.8,2.1,3.1
		c0.1,0.2,0.3,0.3,0.4,0.2C228,112.8,228.1,112.6,228.1,112.5z"></path><path class="st4" d="M233.4,114.1c-1.4-0.6-2.8-1-4.3-1.2c-0.2,0-0.3,0.2-0.3,0.3c0,0.2,0.2,0.3,0.3,0.3c1.4,0.2,2.8,0.5,4.1,1.1
		C233.6,115,233.9,114.4,233.4,114.1z"></path><path class="st12" d="M204.9,109l3.1,18.8c0,0-2.3,7-7.4,7.9s-8.8-22.5-8.8-22.5"></path><path class="st10" d="M190,99c-3.9,0.3-7.7,1.2-11.4,2.4c-5,1.6-26.6,33.3-23.8,36.4s16.2,9.4,24.2,7.7s26.8-33,25.9-36.5
		c-2-8.1-8.3-8.2-8.3-8.2"></path><path class="st14" d="M204.2,90.6c0,0,1.4,11.9-2.8,14s-9-2.3-10.4-4.9s-2.8-15.7,5.2-14.8S204.2,90.6,204.2,90.6z"></path><path class="st4" d="M204.5,82.7c-3.3-1.1-7.1-3.6-13,0.3s-7.7,14.6-0.7,17.2l1.3-3.9c-0.6-0.8-0.9-1.8-0.8-2.8
		c0.1-1.3,1.1-2.2,2.4-2.2c0.1,0,0.2,0,0.3,0c0.7-0.5,1.3-1.2,1.7-2.1c1.2-2.3,2.5-1.2,4.2,0.9s5.4,2.7,7.3,1.4
		S208.7,84.2,204.5,82.7z"></path><path class="st12" d="M181.4,102.6c-5,2.3-9.7,5-14.2,8.2c-5.7,4.9-11.4,11.6-5.8,17.3c6.3,6.3,23.2-11.4,27.9-16.6
		C187.7,107.7,184.9,104.7,181.4,102.6z"></path><path class="st12" d="M216.9,111.8c-4.3,3.1-8.5,6.4-12.4,9.9l-6.1,13c0,0,3.6,5,10.2,1.5c4.7-2.5,12.1-11.6,15.7-17.1
		C222.9,115.8,220.3,113.1,216.9,111.8z"></path><polygon class="st9" points="187.5,98.9 184.5,90.6 190.8,87 196.6,103.6 189.9,106.8 	"></polygon><path class="st14" d="M184,104.6l1.4-5c0,0-0.5-5.1,0-5.2s2,4.6,2,4.6s2.7-5.9,3.9-5.3s2.8,5.1,2.9,6s-7.4,7.6-7.4,7.6"></path><path class="st4" d="M172.3,157.8c-0.1-0.9-1.5-0.9-1.4,0l6.4,67.9c0.1,0.9,1.5,0.9,1.4,0L172.3,157.8z"></path></g></svg>