<svg transform="scale(2)" version="1.1" id="Layer_1" xmlns="http://www.w3.org/2000/svg" xmlns:xlink="http://www.w3.org/1999/xlink" x="0px" y="0px" viewBox="0 0 500 500" xml:space="preserve" class="show_show__wrapper__graphic__5Waiy "><title>React</title><style type="text/css">
	.st0{fill:#5784d0;}
	.st1{fill:#FFFFFF;}
	.st2{opacity:0.32;fill:url(#SVGID_1_);enable-background:new    ;}
	.st3{fill:#4b4b4b;}
	.st4{fill:#68E1FD;}
	.st5{fill:#FF4700;}
	.st6{fill:#FFDF24;}
	.st7{fill:#84cc47;}
	.st8{opacity:0.32;fill:url(#SVGID_00000150810820077980904120000011582912773404439976_);enable-background:new    ;}
	.st9{opacity:0.32;fill:url(#SVGID_00000096752055885460928190000013806740667683184316_);enable-background:new    ;}
	.st10{fill:#79C83B;}
	.st11{fill:#E6E6E6;}
	.st12{opacity:0.32;fill:url(#SVGID_00000183206919545779651290000003910008029050618246_);enable-background:new    ;}
	.st13{opacity:0.7;fill:#4b4b4b;enable-background:new    ;}
	.st14{opacity:0.2;fill:#4b4b4b;enable-background:new    ;}
	.st15{opacity:0.7;}
	.st16{opacity:0.5;fill:#4b4b4b;enable-background:new    ;}
</style><path class="st0" id="field" d="M243.2,393.1L28.8,266.4c-6.8-3.9-12.7-10.1-6-14.2l215.1-124c3.2-2,8.1-3.3,11.4-1.4l225,130.6
	c6.8,4,8,15,1.2,19L271.4,392.9C262.7,397.9,252,398,243.2,393.1z"></path><polyline class="st1" id="bill" points="171,255.9 171.9,256.5 268.5,312.8 271.1,309.1 279.1,307.2 279.1,304 287.3,302.4 
	289,299.1 294.8,298.5 297.5,294.2 301.9,293.2 304.9,289.9 311.6,288.9 314.6,284.4 217.7,228.9 213.1,228.1 211.9,232.2 209,230 
	206.9,234.2 202.8,234.2 201.8,238.1 196.4,238.7 196,241.4 190.7,242.5 189.4,245.9 185.5,245.3 184.1,249.2 178.2,248.2 
	177.6,251.2 173.2,252.6 "></polyline><g id="debit-card"><linearGradient id="SVGID_1_" gradientUnits="userSpaceOnUse" x1="328.134" y1="-1551.7526" x2="320.654" y2="-1563.3925" gradientTransform="matrix(1 0 0 1 0 1905.1399)"><stop offset="0" style="stop-color: rgb(255, 255, 255); stop-opacity: 0;"></stop><stop offset="0.98" style="stop-color: rgb(8, 0, 191);"></stop></linearGradient><polyline class="st2" points="264,344.9 306.3,369.2 371.4,329.5 327.1,304.1 	"></polyline><path class="st3" d="M194.6,305.2L285,357c3.2,1.8,7.1,1.8,10.3,0l52-30.5c2.2-1.3,3-4.1,1.7-6.4c0,0,0,0,0,0
		c-0.4-0.7-1-1.3-1.7-1.7L256.5,266c-2.8-1.6-6.2-1.6-9,0l-52.9,31c-2.3,1.3-3.1,4.1-1.8,6.4C193.2,304.1,193.8,304.7,194.6,305.2
		L194.6,305.2z"></path><path class="st4" d="M194.6,301.6l90.4,51.8c3.2,1.8,7.1,1.8,10.3,0l52-30.5c2.2-1.3,3-4.2,1.7-6.4c-0.4-0.7-1-1.3-1.7-1.7
		l-90.8-52.5c-2.8-1.6-6.2-1.6-9,0l-52.9,31c-2.3,1.2-3.1,4.1-1.9,6.3C193.2,300.5,193.8,301.1,194.6,301.6L194.6,301.6z"></path><path class="st1" d="M205.1,297.1l15.9,9.3c0.8,0.5,1.8,0.5,2.5,0l8.8-5.6c0.7-0.4,0.9-1.3,0.4-1.9c-0.1-0.2-0.3-0.3-0.4-0.4
		l-16.6-9.6c-0.7-0.4-1.6-0.4-2.3,0.1l-8.4,5.9c-0.6,0.5-0.7,1.3-0.3,1.9C204.8,296.9,204.9,297.1,205.1,297.1z"></path><ellipse class="st5" cx="281.8" cy="332.2" rx="8.4" ry="5.9"></ellipse><ellipse class="st6" cx="290.8" cy="337.3" rx="8.4" ry="5.9"></ellipse><polygon class="st3" points="223.2,276.6 325.1,335.9 340.8,326.7 237.7,268.1 	"></polygon></g><g id="plant"><path class="st7" d="M397.6,177c0,0,2.3,8.5-0.1,12.7s-4.3,5.1-1.5,10.3s10.3,6,10.8,10S403.2,184.2,397.6,177z"></path><g id="plant-2"><linearGradient id="SVGID_00000124870059354247962950000010456488102098251155_" gradientUnits="userSpaceOnUse" x1="-1057.0663" y1="-1618.6978" x2="-1026.5963" y2="-1643.2478" gradientTransform="matrix(-1 0 0 1 -613.06 1905.1399)"><stop offset="0" style="stop-color: rgb(255, 255, 255); stop-opacity: 0;"></stop><stop offset="0.98" style="stop-color: rgb(8, 0, 191);"></stop></linearGradient><path d="
			M436.4,295.5c8.2-5.7,16.9-10.8,26-15L416,261.1l-15.3,11.2c10.8,6.9,21.6,13.7,32.2,20.8C434.1,293.9,435.2,294.7,436.4,295.5z" style="opacity: 0.32; fill: url(&quot;#SVGID_00000124870059354247962950000010456488102098251155_&quot;);"></path><path class="st3" d="M427.9,232.9c-0.1-0.4-0.3-0.7-0.5-1c-0.4-0.5-0.9-0.9-1.5-1.3c-7.5-5.1-17.9-6.5-25.9-1.5
			c-1.8,1.1-4.5,3.7-3.4,6.1c0.6,1.4,2.5,2.2,3.9,2.8c4.4,1.7,8.9,2.9,13.6,3.6c1.7,0.3,3.4,0.6,5.1,0.7c2.4,0.2,4.7-0.8,6.2-2.6
			C426.6,238.1,428.5,235.1,427.9,232.9z"></path><path class="st4" d="M396.5,234.1c0,0,6.9,6.2,18.7,5.3s12.8-6.5,12.8-6.5s-3.1,39.3-4.7,39.9s-7.7,3.6-10.6,3.8
			s-12.2-3.5-12.4-4.5S396.5,234.1,396.5,234.1z"></path><path class="st7" d="M398.6,176.8c-0.4-0.7-1.5-0.1-1.1,0.6c8.1,16.3,9.7,34.7,11.1,52.6c0.1,0.8,1.4,0.8,1.3,0
			C408.5,212,406.8,193.4,398.6,176.8z"></path><path class="st7" d="M423.5,192.3c-6.2,13.1-9.8,27.2-10.3,41.7c0,0.4,0.4,0.8,0.8,0.8c0.4,0,0.8-0.4,0.8-0.8
			c0.6-14.2,4-28.1,10.1-40.9C425.3,192.2,424,191.4,423.5,192.3z"></path><path class="st7" d="M424.6,196.4c0-0.9-0.2-2.6-0.1-4l-0.9,0.6c-3.1,7.5-7.7,25.1-9,30.5c1.9-4,9.5-4.6,11.8-10.4
			c1-2.4,1-5.2,0.1-7.6C425.3,202.6,424.7,199.5,424.6,196.4z"></path></g></g><g id="cc"><linearGradient id="SVGID_00000086671728716017444600000013920770069542239376_" gradientUnits="userSpaceOnUse" x1="156.0572" y1="-1631.0085" x2="140.3172" y2="-1659.9285" gradientTransform="matrix(1 0 0 1 0 1905.1399)"><stop offset="0" style="stop-color: rgb(255, 255, 255); stop-opacity: 0;"></stop><stop offset="0.98" style="stop-color: rgb(8, 0, 191);"></stop></linearGradient><polyline points="
		81.7,273.7 125,297.6 214.4,245 173.6,221.7 	" style="opacity: 0.32; fill: url(&quot;#SVGID_00000086671728716017444600000013920770069542239376_&quot;);"></polyline><path class="st7" d="M78.5,213.9v55.4c0,2.6,2.2,4.7,4.8,4.7c0.8,0,1.6-0.2,2.4-0.7l82.2-48.9c1.4-0.8,2.3-2.4,2.3-4V164
		c0-2.6-2.1-4.7-4.7-4.7c-0.8,0-1.7,0.2-2.4,0.7L82.5,207C80,208.4,78.5,211.1,78.5,213.9z"></path><path class="st10" d="M82.1,215.3v55.4c0,2.6,2.1,4.7,4.7,4.7c0,0,0,0,0,0c0.8,0,1.7-0.2,2.4-0.6l82.2-48.9
		c1.4-0.9,2.3-2.4,2.3-4.1v-56.4c0-2.6-2.1-4.7-4.7-4.7c-0.8,0-1.7,0.2-2.4,0.7L86,208.3C83.5,209.8,82,212.4,82.1,215.3z"></path><ellipse class="st6" transform="matrix(0.3667 -0.9304 0.9304 0.3667 -99.1099 287.6501)" cx="161.7" cy="216.6" rx="8.6" ry="5.9"></ellipse><ellipse class="st5" transform="matrix(0.3667 -0.9304 0.9304 0.3667 -108.6981 282.8403)" cx="153.4" cy="221.3" rx="8.6" ry="5.9"></ellipse><path class="st1" d="M92.3,211.8c1-0.6,1.7-0.3,2,0.8l-0.8,0.7c-0.2-0.6-0.6-0.8-1.2-0.4c-0.4,0.3-0.8,0.6-1,1.1
		c-0.3,0.6-0.4,1.2-0.4,1.9c-0.1,0.5,0.1,1,0.4,1.4c0.3,0.3,0.7,0.3,1,0c0.6-0.4,1.1-1.1,1.2-1.8l0.8-0.2c-0.2,1.3-0.9,2.4-2,3.1
		c-0.5,0.4-1.1,0.4-1.6,0c-0.5-0.6-0.8-1.3-0.7-2.1c0-1,0.2-1.9,0.7-2.8C91,212.9,91.6,212.3,92.3,211.8z"></path><path class="st1" d="M97.3,212.6l1.3,2.1l-1,0.6l-1.3-2.1l-0.5,0.3v2.8l-0.9,0.5v-6.5l1.7-1c0.9-0.5,1.4-0.1,1.4,1
		C98.2,211.2,97.9,212,97.3,212.6z M96.8,211.9c0.4-0.2,0.6-0.6,0.6-1c0-0.5-0.2-0.6-0.6-0.4l-0.8,0.5v1.5L96.8,211.9"></path><polygon class="st1" points="102.2,206.3 102.2,207.4 100.1,208.5 100.1,209.9 101.8,209 101.8,210.1 100.1,211 100.1,212.8 
		102.2,211.6 102.2,212.7 99.2,214.4 99.2,207.9 	"></polygon><path class="st1" d="M104.5,204.9c1.1-0.6,2.2-0.3,2.2,2c0.1,1.8-0.8,3.5-2.2,4.5l-1.5,0.8v-6.5L104.5,204.9z M105.3,209.4
		c0.4-0.6,0.6-1.3,0.5-2c0-0.8-0.2-1.3-0.5-1.4c-0.4-0.1-0.8,0-1.1,0.2l-0.3,0.2v4.2l0.3-0.2C104.7,210.2,105.1,209.9,105.3,209.4"></path><polygon class="st1" points="108.4,202.7 108.4,209.2 107.5,209.7 107.5,203.2 	"></polygon><polygon class="st1" points="112.7,200.3 112.7,201.4 111.4,202.1 111.3,207.5 110.5,208 110.5,202.6 109.2,203.4 109.2,202.3 	"></polygon><path class="st1" d="M117,197.7c1-0.6,1.7-0.3,2,0.8l-0.8,0.7c-0.2-0.6-0.6-0.8-1.2-0.4c-0.4,0.3-0.8,0.6-1,1.1
		c-0.3,0.6-0.4,1.2-0.4,1.9c-0.1,0.5,0.1,1,0.4,1.4c0.3,0.2,0.7,0.2,1,0c0.6-0.4,1.1-1.1,1.2-1.8l0.8-0.2c-0.2,1.3-0.9,2.4-2,3.1
		c-0.5,0.4-1.1,0.4-1.6,0c-0.5-0.6-0.7-1.3-0.6-2.1c0-1,0.2-1.9,0.7-2.8C115.8,198.7,116.3,198.1,117,197.7z"></path><path class="st1" d="M121.7,195.1l1.6,5.6l-1,0.5l-0.3-1.3l-1.5,0.9l-0.3,1.7l-0.9,0.5l1.6-7.4L121.7,195.1z M120.7,199.5l1-0.6
		l-0.5-1.9L120.7,199.5"></path><path class="st1" d="M126.1,196.2l1.3,2.1l-1,0.6l-1.3-2.1l-0.5,0.3v2.8l-0.9,0.5v-6.5l1.7-1c0.9-0.5,1.4-0.1,1.4,1
		C127,194.7,126.7,195.5,126.1,196.2z M125.6,195.5c0.4-0.2,0.6-0.6,0.6-1c0-0.5-0.2-0.6-0.5-0.4l-0.8,0.5v1.5L125.6,195.5"></path><path class="st1" d="M129.6,190.6c1.1-0.6,2.2-0.3,2.2,2c0.1,1.8-0.8,3.5-2.2,4.5l-1.5,0.8v-6.5L129.6,190.6z M130.3,195.1
		c0.4-0.6,0.5-1.3,0.5-2c0-0.8-0.2-1.3-0.5-1.4c-0.4-0.1-0.8,0-1.1,0.2l-0.3,0.2v4.2l0.3-0.2C129.7,195.9,130.1,195.6,130.3,195.1"></path><path class="st11" d="M91.8,228.9v10.4c0,1.4,1.1,2.5,2.5,2.5c0.4,0,0.9-0.1,1.3-0.3l14.4-8.3c0.8-0.4,1.3-1.3,1.3-2.2v-10.6
		c0-1.4-1.1-2.5-2.5-2.5c-0.5,0-0.9,0.1-1.3,0.4l-14.4,8.5C92.3,227.3,91.8,228.1,91.8,228.9z"></path><polygon class="st1" points="116.9,220.2 117.3,220 116.8,226.5 116.1,226.9 116.4,222.1 115.6,223.3 115.6,222.1 	"></polygon><path class="st1" d="M119.4,218.7h0.1c0.8-0.5,1.2,0,1.1,1.1c-0.1,0.6-0.2,1.2-0.5,1.8l-1.1,2.7l1.5-0.9l-0.1,1.1l-2.7,1.6v-0.5
		l1.7-3.9c0.2-0.4,0.3-0.9,0.4-1.4c0-0.5-0.1-0.7-0.5-0.5l0,0c-0.3,0.3-0.5,0.7-0.6,1.1l-0.7,0.2c0.1-0.5,0.2-1,0.5-1.5
		C118.8,219.3,119,219,119.4,218.7z"></path><path class="st1" d="M121.7,217.4l2.4-1.4v0.4L123,219l0.2-0.1c0.7-0.4,1,0.1,0.9,1.3c0,0.6-0.2,1.3-0.5,1.8
		c-0.2,0.4-0.5,0.8-0.9,1.1l-0.1,0.1c-0.3,0.3-0.7,0.3-1,0.1c-0.3-0.3-0.4-0.7-0.3-1.1l0.7-0.6c0,0.6,0.3,0.8,0.6,0.5l0,0
		c0.4-0.4,0.7-0.9,0.7-1.5c0-0.7-0.2-1-0.6-0.7l0,0c-0.1,0.1-0.2,0.2-0.3,0.3l-0.3-0.5l0.9-2.1l-1.3,0.8V217.4z"></path><path class="st1" d="M127.3,218.1l0.5-0.3l-0.1,1.1l-0.5,0.3l-0.1,1.2l-0.8,0.4l0.1-1.2l-1.8,1.1v-0.6l2.1-5.7l0.8-0.5L127.3,218.1
		z M126.5,218.5l0.2-2.5l-1.1,3L126.5,218.5"></path><path class="st1" d="M132.5,215l0.5-0.3l-0.1,1.1l-0.5,0.3l-0.1,1.2l-0.8,0.4l0.1-1.2l-1.8,1.1V217l2.1-5.7l0.8-0.5L132.5,215z
		 M131.7,215.4l0.2-2.5l-1.1,3L131.7,215.4"></path><path class="st1" d="M134.3,209.8l2.2-1.3l-0.1,1.1l-1.6,0.9l-0.2,1.4c0.1-0.2,0.3-0.4,0.5-0.5h0.1c0.9-0.5,1.3,0,1.2,1.4
		c0,0.6-0.2,1.3-0.5,1.8c-0.2,0.5-0.5,0.9-0.9,1.2h-0.2c-0.2,0.2-0.6,0.2-0.9,0.1c-0.2-0.3-0.4-0.6-0.3-1l0.7-0.6
		c0,0.6,0.2,0.7,0.6,0.5l0,0c0.4-0.4,0.7-0.9,0.6-1.5c0-0.7-0.2-1-0.6-0.7h0c-0.3,0.3-0.6,0.6-0.7,1l-0.5,0.1L134.3,209.8z"></path><path class="st1" d="M139.7,209.4c0.3,0.4,0.4,0.8,0.3,1.3c0,0.6-0.2,1.2-0.5,1.8c-0.2,0.4-0.5,0.8-0.9,1.1l-0.1,0.1
		c-0.3,0.3-0.7,0.3-1,0c-0.3-0.4-0.4-0.8-0.3-1.3c0-0.4,0.1-0.9,0.3-1.3l1.4-4.1l0.9-0.5l-1.1,2.9h0.1
		C139.1,209.2,139.4,209.2,139.7,209.4z M139.2,211.2c0-0.6-0.2-0.9-0.6-0.6l0,0c-0.4,0.3-0.6,0.9-0.7,1.4c0,0.6,0.2,0.9,0.6,0.6
		l0,0C139,212.2,139.2,211.7,139.2,211.2"></path><polygon class="st1" points="140.7,206 143.3,204.4 143.3,204.9 141.3,211.9 140.5,212.3 142.3,206.1 140.7,207.1 	"></polygon><path class="st1" d="M147.4,204.9c0.4,0.1,0.5,0.5,0.5,1.2c0,0.6-0.2,1.2-0.5,1.7c-0.2,0.4-0.5,0.7-0.9,1l-0.1,0.1
		c-0.3,0.2-0.7,0.2-0.9,0c-0.3-0.3-0.4-0.8-0.3-1.2c0-0.7,0.3-1.3,0.7-1.9c-0.2-0.2-0.4-0.5-0.3-1.1c0-0.5,0.2-1,0.4-1.5
		c0.2-0.4,0.5-0.7,0.8-1h0.1c0.4-0.2,0.6-0.2,0.8,0c0.2,0.3,0.3,0.6,0.3,1C147.8,203.8,147.7,204.4,147.4,204.9z M147.1,206.6
		c0-0.2,0-0.4-0.1-0.6c-0.1-0.1-0.2-0.1-0.4,0l0,0c-0.2,0.1-0.3,0.3-0.4,0.5c-0.1,0.2-0.2,0.5-0.2,0.8c0,0.2,0,0.4,0.1,0.6
		c0.1,0.1,0.3,0.1,0.4,0l0,0c0.2-0.1,0.3-0.3,0.4-0.5C147,207.1,147,206.8,147.1,206.6 M147.1,203.8c0-0.5-0.2-0.7-0.5-0.5l0,0
		c-0.3,0.3-0.5,0.7-0.5,1.1c0,0.5,0.1,0.7,0.4,0.5l0,0C146.9,204.6,147.1,204.2,147.1,203.8"></path><path class="st1" d="M151.1,200.3c0.3,0.4,0.4,0.8,0.3,1.3c0,0.4-0.1,0.9-0.3,1.3l-1.4,4.2l-0.9,0.5l1.1-3h-0.1
		c-0.4,0.2-0.7,0.2-0.9,0c-0.3-0.4-0.4-0.8-0.3-1.3c0.1-0.6,0.2-1.2,0.5-1.7c0.2-0.5,0.5-0.8,0.9-1.1l0.1-0.1
		C150.4,200.1,150.8,200.1,151.1,200.3z M150.6,202c0-0.6-0.2-0.9-0.6-0.6l0,0c-0.4,0.4-0.7,0.9-0.7,1.4c0,0.6,0.2,0.9,0.6,0.6l0,0
		C150.4,203,150.6,202.5,150.6,202"></path><polygon class="st1" points="152.1,199.2 154.7,197.6 154.6,198.1 152.7,205.1 151.9,205.5 153.7,199.2 152,200.2 	"></polygon><path class="st1" d="M157.6,196.4c0.3,0.4,0.4,0.8,0.3,1.3c0,0.4-0.1,0.9-0.3,1.3l-1.4,4.1l-0.9,0.5l1.1-3h-0.1
		c-0.4,0.2-0.7,0.2-0.9,0c-0.3-0.4-0.4-0.8-0.3-1.3c0.1-0.6,0.2-1.2,0.5-1.7c0.2-0.4,0.5-0.8,0.9-1.1l0.1-0.1
		C157,196.2,157.3,196.2,157.6,196.4z M157.1,198.1c0-0.6-0.2-0.9-0.6-0.6l0,0c-0.4,0.3-0.7,0.9-0.7,1.4c0,0.6,0.2,0.9,0.6,0.6l0,0
		C156.8,199.2,157.1,198.6,157.1,198.1"></path><polygon class="st1" points="103.1,248.5 101.9,252.2 103.2,254.6 102.3,255.2 101.5,253.6 100.6,256.5 99.7,257.1 101.1,252.8 
		100,250.6 100.9,250.1 101.5,251.3 102.3,249.1 	"></polygon><polygon class="st1" points="110.3,243.5 109.1,247.2 110.4,249.7 109.5,250.3 108.7,248.6 107.7,251.5 106.9,252.1 108.3,247.8 
		107.2,245.7 108.1,245.1 108.7,246.4 109.5,244.1 	"></polygon><polygon class="st1" points="106.7,246 105.5,249.7 106.8,252.2 105.9,252.8 105.1,251.1 104.1,254 103.3,254.6 104.7,250.3 
		103.6,248.2 104.5,247.6 105.1,248.9 105.9,246.6 	"></polygon><polygon class="st1" points="115.4,240 114.2,243.7 115.5,246.2 114.6,246.8 113.8,245.1 112.8,248 112,248.6 113.4,244.3 
		112.3,242.1 113.2,241.6 113.8,242.9 114.6,240.6 	"></polygon><polygon class="st1" points="119,237.5 117.8,241.2 119.1,243.7 118.2,244.3 117.4,242.6 116.4,245.5 115.6,246.1 117,241.8 
		115.9,239.7 116.8,239.1 117.4,240.4 118.2,238.1 	"></polygon><polygon class="st1" points="122.6,235 121.4,238.7 122.7,241.2 121.8,241.8 121,240.1 120,243 119.1,243.6 120.6,239.3 
		119.5,237.2 120.4,236.6 121,237.9 121.8,235.6 	"></polygon></g><g id="payment-success"><linearGradient id="SVGID_00000117640579251306819610000000910326932333470635_" gradientUnits="userSpaceOnUse" x1="357.9106" y1="-1630.8103" x2="342.6306" y2="-1658.9202" gradientTransform="matrix(1 0 0 1 0 1905.1399)"><stop offset="0" style="stop-color: rgb(255, 255, 255); stop-opacity: 0;"></stop><stop offset="0.98" style="stop-color: rgb(8, 0, 191);"></stop></linearGradient><polyline points="
		302.7,267.1 340.8,290.1 399.1,255.7 358.4,232.4 	" style="opacity: 0.32; fill: url(&quot;#SVGID_00000117640579251306819610000000910326932333470635_&quot;);"></polyline><path class="st11" d="M218.1,116.3c-3.9,2.7-6.2,7.2-6,12c0.4,11.1,2.9,13.2,2.9,13.2l17.6-8.6l25.6-18.7
		C258.1,114.2,236.6,108.9,218.1,116.3z"></path><path class="st13" d="M218.1,116.3c-3.9,2.7-6.2,7.2-6,12c0.4,11.1,2.9,13.2,2.9,13.2l17.6-8.6l25.6-18.7
		C258.1,114.2,236.6,108.9,218.1,116.3z"></path><path class="st11" d="M186.7,177.6c0,0-4.1,15.4,16.9,31.4s99,58.1,99,58.1l57.9-34.2v-26.4l-151.3-51.9"></path><path class="st3" d="M360.5,206.5l-85.1-62.4c0,0-13.3-11.4-24.9-10.4s-58.3,32.3-58.3,32.3l115,74.3L360.5,206.5z"></path><polygon class="st4" points="260.2,193.5 274.5,204.9 310,183.6 296.5,172.9 	"></polygon><polygon class="st4" points="241.9,184 306.3,232.9 349.6,208.1 285.1,159.2 	"></polygon><path class="st11" d="M307.3,238l-70.3-52.5c0,0-30.6-29.7-42.3-20.8c0,0-6.7,2.4-7.9,12.9c0,0,9.6-8,19.7-1.8s98.6,74.1,98.6,74.1
		L307.3,238z"></path><path class="st14" d="M305,250l-2.3,17.1c0,0,57.9-32.9,57.9-34.2v-16.3L305,250z"></path><path class="st11" d="M236.2,168.3l29.3-16c0,0-0.4-28.4-11.6-45.7c-2.1-3.1-6.2-4.2-9.6-2.6l-26.1,12.3
		C218.1,116.4,228.1,110.5,236.2,168.3z"></path><g class="st15"><rect class="st3" x="236.8" y="128" transform="matrix(0.877 -0.4805 0.4805 0.877 -31.3302 134.7218)" width="21.4" height="1"></rect></g><g class="st15"><rect class="st3" x="238.1" y="132.4" transform="matrix(0.877 -0.4805 0.4805 0.877 -33.2484 135.8902)" width="21.4" height="1"></rect></g><g class="st15"><rect class="st3" x="238.8" y="136.6" transform="matrix(0.877 -0.4805 0.4805 0.877 -35.1666 136.7659)" width="21.4" height="1"></rect></g><g class="st15"><rect class="st3" x="241.5" y="154.1" transform="matrix(0.877 -0.4805 0.4805 0.877 -43.2462 140.1996)" width="21.4" height="1"></rect></g><path class="st10" d="M315.1,198c-1.1,6-10.6,9.3-21.4,7.4s-18.5-8.3-17.5-14.2s10.6-9.3,21.4-7.4S316.2,192.1,315.1,198z"></path><polygon class="st1" points="301.5,200.6 291.6,200.6 291.6,198.6 298.9,198.6 295.8,187.3 297.8,186.8 	"></polygon><path class="st13" d="M307.3,238l-70.3-52.5c0,0-30.6-29.7-42.3-20.8c0,0-6.7,2.4-7.9,12.9c0,0,9.6-8,19.7-1.8s98.6,74.1,98.6,74.1
		L307.3,238z"></path><polygon class="st11" points="307.3,238 360.5,206.5 360.5,216.7 305,249.9 	"></polygon><polygon class="st16" points="307.3,238 360.5,206.5 360.5,216.7 305,249.9 	"></polygon></g></svg>