<svg transform="scale(1)" xmlns="http://www.w3.org/2000/svg" viewBox="0 0 100 100" class="show_show__wrapper__graphic__5Waiy "><title>React</title><defs><style>.cls-1{fill:#3fe2fd;}.cls-2{fill:#251ac7;}</style></defs><g id="_0694_CCTV" data-name="0694_CCTV"><g id="Layer_10" data-name="Layer 10"><circle class="cls-1" cx="48.81" cy="66.59" r="3.8"></circle><path class="cls-1" d="M49.9,40.62h0A13.58,13.58,0,0,0,36.32,54.21h0V74.86A13.59,13.59,0,0,0,49.9,88.45h0A13.59,13.59,0,0,0,63.49,74.86h0V54.21A13.59,13.59,0,0,0,49.91,40.62ZM48.43,72.3a6.37,6.37,0,1,1,6.37-6.37h0a6.37,6.37,0,0,1-6.37,6.36Z"></path><rect class="cls-1" x="8.14" y="10.91" width="28.17" height="16.51"></rect><path class="cls-1" d="M26.22,27.42V54.14a20.55,20.55,0,0,0,5.31,13.92,19.2,19.2,0,0,0,5.56,4.24v9s-19.88-6-19.73-23.6V27.42Z"></path></g><g id="Layer_3" data-name="Layer 3"><path class="cls-2" d="M87.31,29.14H12.69a5.84,5.84,0,0,1-5.83-5.83V14.53a5.83,5.83,0,0,1,5.83-5.82H87.31a5.83,5.83,0,0,1,5.83,5.82v8.78A5.84,5.84,0,0,1,87.31,29.14ZM12.69,11.55a3,3,0,0,0-3,3v8.78a3,3,0,0,0,3,3H87.31a3,3,0,0,0,3-3V14.53a3,3,0,0,0-3-3Z"></path><path class="cls-2" d="M62.21,83.3a1.42,1.42,0,0,1-.4-2.78,26.69,26.69,0,0,0,19-25.46V29.14H19.15V55.06a26.69,26.69,0,0,0,19,25.47,1.42,1.42,0,0,1-.8,2.72A29.62,29.62,0,0,1,22.28,72.82a29.13,29.13,0,0,1-6-17.76V27.72a1.43,1.43,0,0,1,1.42-1.42H82.27a1.43,1.43,0,0,1,1.42,1.42V55.06a29.13,29.13,0,0,1-6,17.76A29.62,29.62,0,0,1,62.61,83.25,1.33,1.33,0,0,1,62.21,83.3Z"></path><path class="cls-2" d="M50,91.29A14.76,14.76,0,0,1,35.25,76.55V53.36a14.75,14.75,0,0,1,29.5,0V76.55A14.76,14.76,0,0,1,50,91.29Zm0-49.83a11.92,11.92,0,0,0-11.91,11.9V76.55A11.92,11.92,0,0,0,50,88.45h0a11.92,11.92,0,0,0,11.91-11.9V53.36A11.92,11.92,0,0,0,50,41.46Z"></path><path class="cls-2" d="M49.67,76.71a9.65,9.65,0,1,1,9.66-9.65A9.66,9.66,0,0,1,49.67,76.71Zm0-16.46a6.81,6.81,0,1,0,6.81,6.81A6.81,6.81,0,0,0,49.67,60.25Z"></path></g></g></svg>