<svg transform="scale(1)" xmlns="http://www.w3.org/2000/svg" viewBox="0 0 100 100" class="show_show__wrapper__graphic__5Waiy "><title>React</title><defs><style>.cls-1{fill:#3fe2fd;}.cls-2{fill:none;}.cls-3{fill:#251ac7;}</style></defs><g id="_0357_Cloud_Computing_2" data-name="0357_Cloud_Computing_2"><g id="Layer_2" data-name="Layer 2"><polyline class="cls-1" points="38.76 83.69 67.15 87.94 61.27 80.22 40.73 80.22 38.76 83.69"></polyline><path class="cls-1" d="M64.65,36.94a3.3,3.3,0,0,0,.21,1.39,3.77,3.77,0,0,0,1.49,1.39,19,19,0,0,1,5.46,5.52,9.46,9.46,0,0,1,1.76,4.94c.06,3.51-2.86,6.51-6.17,7.68s-6.92.94-10.42.69L39.74,57.29c-1.31-.1-2.87-.37-3.37-1.58q9.35-.18,18.71,0c2.42,0,4.94.09,7.14-.93a10.51,10.51,0,0,0,3.29-2.52c2.13-2.38,3.5-5.84,2.28-8.8-1-2.32-3.27-3.8-5.61-4.73a3,3,0,0,1-1.61-1.08,2.8,2.8,0,0,1-.21-1.41q.15-5,.38-10.08c.06-1.46-.69-5.69,1.41-5C66.31,22.62,64.62,34,64.65,36.94Z"></path><path class="cls-1" d="M38.8,21.54l-1.5-.06a.82.82,0,0,0-.38.06c-.21.13-.21.44-.2.69A74.74,74.74,0,0,1,37,30c0,2.5-.57,5.15-.44,7.6,2.53.77,1.86-3.62,1.89-5C38.5,31.69,38.8,21.54,38.8,21.54Z"></path><path class="cls-1" d="M51.9,22a.58.58,0,0,0-.06-.26.51.51,0,0,0-.29-.17,7.55,7.55,0,0,0-1.7-.28.3.3,0,0,0-.27.08.26.26,0,0,0,0,.17L49.32,26c0,.84-.24,1.71.84,1.54C52.47,27.18,52,23.59,51.9,22Z"></path></g><g id="Layer_5" data-name="Layer 5"><path class="cls-2" d="M58.84,37.06h.28V22H50v4.87A10.28,10.28,0,0,1,58.84,37.06Z"></path><path class="cls-2" d="M38.1,37.06h.18a10.28,10.28,0,0,1,8.81-10.17V22H37.28V37.1C37.55,37.08,37.82,37.06,38.1,37.06Z"></path><polygon class="cls-2" points="33.05 92.9 68.18 92.9 61.27 80.22 40.73 80.22 33.05 92.9"></polygon><path class="cls-2" d="M11.12,68.35a10.41,10.41,0,0,0,10.3,8.93H78.59a10.41,10.41,0,0,0,10.29-8.93Z"></path><path class="cls-2" d="M78.59,22H62.06V37.08a9.73,9.73,0,0,1-.47,19.45H38.1a9.73,9.73,0,0,1-3.76-18.71V22H21.41A10.4,10.4,0,0,0,11,32.42v33H89v-33A10.4,10.4,0,0,0,78.59,22Z"></path><path class="cls-3" d="M78.59,19.08H62.06V13.86H76.4l-2,1.34A1.47,1.47,0,1,0,76,17.66l0,0,5.5-3.72A1.48,1.48,0,0,0,82,11.86a1.37,1.37,0,0,0-.38-.38L75.91,7.57A1.47,1.47,0,1,0,74.24,10h0l1.35.92h-15a1.47,1.47,0,0,0-1.47,1.47v6.69H50V10.5l1.12,1.63a1.47,1.47,0,1,0,2.48-1.58l-.06-.08-3.9-5.68a1.5,1.5,0,0,0-1.21-.63h0a1.52,1.52,0,0,0-1.22.65l-3.72,5.48A1.47,1.47,0,0,0,46,11.94l1.14-1.68v8.82H37.28V12.39a1.47,1.47,0,0,0-1.47-1.47h-15L22.15,10a1.47,1.47,0,1,0-1.67-2.43h0l-5.67,3.91a1.46,1.46,0,0,0-.38,2,1.56,1.56,0,0,0,.38.39l5.5,3.72A1.47,1.47,0,0,0,22,15.2l-2-1.34H34.34v5.22H21.41A13.36,13.36,0,0,0,8.07,32.42V66.88A13.36,13.36,0,0,0,21.41,80.22H37.29L29.18,93.6a1.48,1.48,0,0,0,1.26,2.24H70.66A1.47,1.47,0,0,0,72,93.66L64.62,80.22h14A13.35,13.35,0,0,0,91.92,66.88V32.42A13.35,13.35,0,0,0,78.59,19.08ZM59.12,22v15h-.28A10.28,10.28,0,0,0,50,26.89V22Zm1.47,18.34a1.48,1.48,0,0,0,.95-.35h.05a6.79,6.79,0,0,1,0,13.58H38.1A6.79,6.79,0,0,1,36,40.35a1.29,1.29,0,0,0,.5-.14A6.41,6.41,0,0,1,38.1,40h1.65a1.47,1.47,0,0,0,1.47-1.47V37.06a7.34,7.34,0,0,1,14.68,0v1.47A1.47,1.47,0,0,0,57.37,40h2.26A1.47,1.47,0,0,0,60.59,40.36ZM47.09,22v4.87a10.29,10.29,0,0,0-8.81,10.17H38.1c-.28,0-.55,0-.82,0V22ZM68.18,92.9H33.05l7.68-12.68H61.27ZM78.59,77.28H21.41a10.41,10.41,0,0,1-10.29-8.93H88.88a10.41,10.41,0,0,1-10.29,8.93ZM89,65.41H11v-33A10.4,10.4,0,0,1,21.41,22H34.34v15.8A9.73,9.73,0,0,0,38.1,56.53H61.59a9.73,9.73,0,0,0,.47-19.45V22H78.59A10.4,10.4,0,0,1,89,32.42Z"></path></g></g></svg>