<svg transform="scale(1)" xmlns="http://www.w3.org/2000/svg" viewBox="0 0 100 100" class="show_show__wrapper__graphic__5Waiy "><title>React</title><defs><style>.cls-1{fill:#3fe2fd;}.cls-2{fill:none;}.cls-3{fill:#251ac7;}</style></defs><g id="_0335_Ethernet" data-name="0335_Ethernet"><g id="Layer_4" data-name="Layer 4"><polygon class="cls-1" points="87.5 39.87 69.32 43.31 69.32 51.54 75.5 63.2 71.04 63.2 64.86 50.16 65.89 37.82 87.5 39.87"></polygon><polygon class="cls-1" points="20.61 36.1 38.79 36.1 38.79 46.39 33.64 51.88 32.27 58.4 37.08 58.4 37.42 55.48 39.99 55.48 40.85 50.34 45.31 50.34 45.31 32.67 20.44 32.67 20.61 36.1"></polygon></g><g id="Layer_1" data-name="Layer 1"><polygon class="cls-2" points="69.32 39.92 66.97 39.92 66.97 51.78 70.97 61.62 82.7 61.77 85.91 51.83 85.91 39.92 83.9 39.92 69.32 39.92"></polygon><path class="cls-2" d="M82.48,22.43H80.35v9.73a1.43,1.43,0,0,1-1.42,1.42H73.78a1.43,1.43,0,0,1-1.42-1.42h0V22.43H70.74V37.08H82.47Z"></path><rect class="cls-2" x="75.2" y="23.29" width="2.3" height="7.45"></rect><rect class="cls-2" x="74.86" y="64.97" width="3.68" height="5.39"></rect><path class="cls-2" d="M27.59,50.74V54h1.49a1.41,1.41,0,0,1,1.42,1.42v2.26h5.26V55.41A1.41,1.41,0,0,1,37.18,54h1.49V50.74a1.43,1.43,0,0,1,1.42-1.43h3.83V34.44H22.08V49.32h4.09A1.42,1.42,0,0,1,27.59,50.74Z"></path><path class="cls-2" d="M19.5,63.38H45.63A5.41,5.41,0,0,0,51,58V33.21a5.41,5.41,0,0,0-5.41-5.41H19.5a5.41,5.41,0,0,0-5.41,5.41V58A5.41,5.41,0,0,0,19.5,63.38ZM19.24,33a1.42,1.42,0,0,1,1.42-1.42H45.34A1.43,1.43,0,0,1,46.77,33V50.74a1.43,1.43,0,0,1-1.43,1.42H41.52v3.25a1.43,1.43,0,0,1-1.42,1.42H38.6v2.26a1.43,1.43,0,0,1-1.42,1.42h-8.1a1.43,1.43,0,0,1-1.42-1.42V56.83H26.17a1.42,1.42,0,0,1-1.42-1.42V52.16H20.66a1.42,1.42,0,0,1-1.42-1.42Z"></path><path class="cls-3" d="M19.5,66.22H45.63A8.24,8.24,0,0,0,53.88,58V33.21A8.25,8.25,0,0,0,45.63,25H19.5a8.25,8.25,0,0,0-8.25,8.25V58A8.24,8.24,0,0,0,19.5,66.22Zm-5.41-33A5.41,5.41,0,0,1,19.5,27.8H45.63A5.41,5.41,0,0,1,51,33.21V58a5.42,5.42,0,0,1-5.41,5.41H19.5A5.42,5.42,0,0,1,14.09,58Z"></path><path class="cls-3" d="M20.66,52.16h4.09v3.25a1.42,1.42,0,0,0,1.42,1.42h1.49v2.26a1.43,1.43,0,0,0,1.42,1.42h8.1a1.43,1.43,0,0,0,1.42-1.42V56.83h1.49a1.43,1.43,0,0,0,1.43-1.42V52.16h3.82a1.42,1.42,0,0,0,1.42-1.42V33a1.42,1.42,0,0,0-1.42-1.42H20.66A1.42,1.42,0,0,0,19.24,33V50.74A1.42,1.42,0,0,0,20.66,52.16Zm1.42-17.72H43.92V49.32H40.1a1.42,1.42,0,0,0-1.43,1.42V54H37.18a1.41,1.41,0,0,0-1.42,1.42v2.26H30.5V55.41A1.41,1.41,0,0,0,29.08,54H27.59V50.74a1.43,1.43,0,0,0-1.42-1.43H22.08Z"></path><path class="cls-3" d="M87.34,37.08h-2V21a1.42,1.42,0,0,0-1.42-1.42H69.33A1.41,1.41,0,0,0,67.91,21h0V37.08H65.55a1.42,1.42,0,0,0-1.42,1.42V52.05a1.4,1.4,0,0,0,.1.54l4.47,11a1.42,1.42,0,0,0,1.3.88l2,0v7.31a1.43,1.43,0,0,0,1.42,1.42h1.67V79A1.42,1.42,0,1,0,78,79V73.21h2a1.43,1.43,0,0,0,1.42-1.42v-7.2l2.33,0h0a1.41,1.41,0,0,0,1.35-1L88.68,52.5a1.31,1.31,0,0,0,.07-.44V38.5A1.42,1.42,0,0,0,87.34,37.08Zm-8.8,33.29H74.86V65h3.68Zm-1-47.07v7.44H75.2V23.29Zm-6.77-.86h1.63v9.73a1.42,1.42,0,0,0,1.42,1.42h5.15a1.43,1.43,0,0,0,1.42-1.42h0V22.44h2.13V37.09H70.75ZM85.91,51.83l-3.21,10L71,61.63l-4-9.84V39.92H85.91Z"></path></g></g></svg>