<svg transform="scale(2)" version="1.1" id="Layer_1" xmlns="http://www.w3.org/2000/svg" xmlns:xlink="http://www.w3.org/1999/xlink" x="0px" y="0px" viewBox="0 0 500 500" xml:space="preserve" class="show_show__wrapper__graphic__5Waiy "><title>React</title><style type="text/css">
	.st0{fill:#FF9F9F;}
	.st1{fill:url(#SVGID_1_);}
	.st2{fill:#68E1FD;}
	.st3{fill:#efefef;}
	.st4{fill:#2E3192;}
	.st5{opacity:0.1;fill:#2E3192;enable-background:new    ;}
	.st6{fill:#368F99;}
	.st7{fill:#FCEE21;}
	.st8{fill:#F15A24;}
	.st9{fill:#FBB03B;}
	.st10{fill:#DA2E81;}
	.st11{fill:#A2C609;}
</style><g id="background"><path class="st0" d="M246.7,429.5L20.9,296.1c-7.2-4-13.4-10.7-6.3-15l226.5-130.6c3.4-2.1,8.6-3.5,12-1.5l237,137.5
		c7.2,4.2,8.5,15.8,1.3,20l-215,122.7C267.2,434.6,255.9,434.7,246.7,429.5z"></path><linearGradient id="SVGID_1_" gradientUnits="userSpaceOnUse" x1="328.1423" y1="311.3183" x2="163.2123" y2="90.0783" gradientTransform="matrix(1 0 0 -1 0 502)"><stop offset="0" style="stop-color: rgb(46, 49, 146);"></stop><stop offset="0.24" style="stop-color: rgb(50, 51, 146); stop-opacity: 0.98;"></stop><stop offset="0.4" style="stop-color: rgb(63, 58, 147); stop-opacity: 0.92;"></stop><stop offset="0.54" style="stop-color: rgb(85, 70, 148); stop-opacity: 0.81;"></stop><stop offset="0.67" style="stop-color: rgb(117, 86, 150); stop-opacity: 0.66;"></stop><stop offset="0.79" style="stop-color: rgb(157, 107, 153); stop-opacity: 0.47;"></stop><stop offset="0.91" style="stop-color: rgb(206, 133, 156); stop-opacity: 0.23;"></stop><stop offset="1" style="stop-color: rgb(255, 159, 159); stop-opacity: 0;"></stop></linearGradient><polyline class="st1" points="198,286 102,344 220.6,414.1 319.2,352.7 	"></polyline></g><g id="laptop"><polyline class="st2" points="414.7,290.5 414.7,295.4 412.2,298.5 	"></polyline><path class="st2" d="M315,230l96.9,60c2.8,1.7,3.7,5.4,2,8.3c-0.5,0.9-1.3,1.6-2.2,2.1l-147,83.1c-4.2,2.4-9.3,2.3-13.4-0.1
		l-96.4-56.7c-7-5.8-6.5-16.6,0.1-17L301,229.8C305.3,227.3,310.7,227.4,315,230z"></path><path class="st3" d="M315,225.9l96.9,60c2.8,1.7,3.7,5.4,2,8.3c-0.5,0.9-1.3,1.6-2.2,2.1l-147,83.1c-4.2,2.4-9.3,2.3-13.4-0.1
		l-96.4-56.7c-3.6-2.1-4.7-6.7-2.6-10.2c0.7-1.1,1.6-2,2.7-2.7l146.1-84C305.3,223.2,310.7,223.2,315,225.9z"></path><path class="st4" d="M311,217.7c0,0-40.2-129.8-40-129.8s-1.3-5.8-8.5-2.5l-154.3,90.9c0,0-7.5,3-6,10s39.3,127,39.3,127
		c1.6,2.3,4.6,3.4,7.3,2.5c4.7-1.5,158.6-90.9,158.6-90.9S312.5,223,311,217.7z"></path><polygon class="st2" points="268.5,97.3 110.4,189.5 143.2,299.5 303.3,210.1 	"></polygon><path class="st2" d="M320.9,239.7l35.4,22.1c2,1.3,2.6,3.9,1.3,5.9c-0.4,0.6-0.9,1.1-1.5,1.4l-127.1,72.5
		c-3.9,2.2-8.6,2.2-12.5-0.1c-8.2-4.8-22.2-13.3-30.9-18.6c-2.4-1.5-3.2-4.7-1.7-7.1c0.4-0.7,1.1-1.3,1.8-1.8
		c25.7-15,109.6-63.7,128-74.4C316,238.3,318.8,238.3,320.9,239.7z"></path><path class="st2" d="M319,299.5l-44.4,25c-2.1,1.2-2.9,3.9-1.7,6c0.4,0.7,0.9,1.3,1.6,1.7l26.1,15.3c1.8,1.1,4.1,1.1,5.9,0
		l45.5-25.9c1.8-1,2.4-3.3,1.4-5.1c-0.3-0.6-0.8-1-1.4-1.4l-27.2-15.6C323,298.5,320.8,298.5,319,299.5z"></path><path class="st5" d="M320.9,239.7l35.4,22.1c2,1.3,2.6,3.9,1.3,5.9c-0.4,0.6-0.9,1.1-1.5,1.4l-127.1,72.5
		c-3.9,2.2-8.6,2.2-12.5-0.1c-8.2-4.8-22.2-13.3-30.9-18.6c-2.4-1.5-3.2-4.7-1.7-7.1c0.4-0.7,1.1-1.3,1.8-1.8
		c25.7-15,109.6-63.7,128-74.4C316,238.3,318.8,238.3,320.9,239.7z"></path><path class="st5" d="M319,299.5l-44.4,25c-2.1,1.2-2.9,3.9-1.7,6c0.4,0.7,0.9,1.3,1.6,1.7l26.1,15.3c1.8,1.1,4.1,1.1,5.9,0
		l45.5-25.9c1.8-1,2.4-3.3,1.4-5.1c-0.3-0.6-0.8-1-1.4-1.4l-27.2-15.6C323,298.5,320.8,298.5,319,299.5z"></path><path class="st6" d="M259.1,138.5l-105.5,59.7c-1.1,0.6-1.8,1.8-1.8,3.1l0,0c0,2,1.6,3.6,3.6,3.6c0.6,0,1.2-0.2,1.8-0.5l105.5-59.3
		c1.1-0.6,1.8-1.8,1.8-3.1v-0.4c0-2-1.6-3.6-3.6-3.6C260.3,138,259.7,138.2,259.1,138.5z"></path></g><g id="graphic_data"><path class="st7" d="M358.4,305.9l-55.8-32.2c-20.2-9.5-22.9-38.7-22.9-38.7v-57.9c0-12.9-12.2-27.7-25.1-30
		c-2.7-0.5-8.3-1.3-10.9,0.2l-82.2,46.4c37.5,3.2,36.6,34.1,36.6,34.1s0,57.4,0.6,61.7c1.7,13.4,10,25,22.1,30.9l0,0l54.9,32.3
		L358.4,305.9z"></path><path class="st8" d="M208.9,248.1l29.2-17l4.1-2.4c0.7-0.4,0.9-1.3,0.5-1.9c-0.4-0.7-1.3-0.9-1.9-0.5l-29.2,17l-4.1,2.4
		c-0.6,0.5-0.8,1.3-0.3,2C207.6,248.3,208.3,248.5,208.9,248.1L208.9,248.1z"></path><path class="st8" d="M208.9,255.1l29.2-17l4.1-2.4c0.7-0.4,0.9-1.3,0.5-1.9s-1.3-0.9-1.9-0.5l-29.2,17l-4.1,2.4
		c-0.7,0.4-0.9,1.3-0.5,1.9S208.2,255.5,208.9,255.1L208.9,255.1z"></path><path class="st8" d="M208.9,262.1l29.2-17l4.1-2.4c0.7-0.4,0.9-1.3,0.5-1.9s-1.3-0.9-1.9-0.5l-29.2,17l-4.1,2.4
		c-0.7,0.4-0.9,1.3-0.5,1.9S208.2,262.5,208.9,262.1z"></path><path class="st8" d="M208.9,269l29.2-17l4.1-2.4c0.7-0.4,0.8-1.3,0.4-2c-0.4-0.6-1.2-0.8-1.8-0.5l-29.2,17l-4.1,2.4
		c-0.7,0.4-0.9,1.3-0.5,1.9S208.2,269.4,208.9,269L208.9,269L208.9,269z"></path><ellipse class="st3" transform="matrix(0.3295 -0.9441 0.9441 0.3295 -41.2641 399.8257)" cx="260.9" cy="229" rx="16.4" ry="10.2"></ellipse><path class="st4" d="M260.9,229v-17.8c0,0,9.4-3.2,12.2,10.2L260.9,229z"></path><path class="st0" d="M260.9,229l8.8,8.2c0,0,4.1-3.2,3.5-15.8L260.9,229z"></path><polygon class="st9" points="274.8,333.6 282.6,339.2 334.4,310.8 308,294.1 310.7,308.9 286.9,307.7 287.6,323.2 273.4,323.8 	"></polygon><polygon class="st4" points="274.2,333.8 272.7,323.1 287.2,322.8 286.2,306.7 309.1,309.2 307.4,294.2 308.6,294.1 310.5,310.6 
		287.5,308.1 288.5,324 274.1,324.4 275.4,333.6 	"></polygon><ellipse class="st4" cx="287.6" cy="323.2" rx="2.7" ry="1.6"></ellipse><ellipse class="st4" cx="286.9" cy="307.7" rx="2.7" ry="1.6"></ellipse><ellipse class="st4" cx="309.3" cy="309.3" rx="2.7" ry="1.6"></ellipse><ellipse class="st4" cx="307.4" cy="294.4" rx="2.7" ry="1.6"></ellipse><path class="st4" d="M276.5,344l21.3-12l33.6-19l7.8-4.4c0.5-0.3,0.6-0.8,0.3-1.3s-0.8-0.6-1.3-0.3l0,0l-21.3,12l-33.6,19l-7.8,4.4
		c-0.5,0.3-0.6,0.8-0.3,1.3S276,344.3,276.5,344L276.5,344z"></path><ellipse class="st4" cx="274.9" cy="333.9" rx="2.7" ry="1.6"></ellipse><path class="st4" d="M223.9,303.8l21.3,12.6l3,1.8c2.1,1.2,4-2,1.9-3.2l-21.3-12.6l-3-1.8C223.7,299.3,221.8,302.5,223.9,303.8
		L223.9,303.8z"></path><path class="st4" d="M238.9,303.2l14.7,8.7l2.1,1.2c2.1,1.2,4-2,1.9-3.2l-14.7-8.7l-2.1-1.2C238.8,298.7,236.8,301.9,238.9,303.2z"></path><path class="st4" d="M251.3,300.5l10.7,6.3l1.5,0.9c0.9,0.5,2.1,0.2,2.6-0.7c0.5-0.9,0.2-2.1-0.7-2.6l0,0l-10.6-6.3l-1.5-0.9
		c-0.9-0.5-2.1-0.2-2.6,0.7C250.2,298.9,250.5,300,251.3,300.5L251.3,300.5z"></path><rect class="st10" x="255.8" y="278.5" transform="matrix(0.8704 -0.4924 0.4924 0.8704 -102.1052 170.4328)" width="33.5" height="1.3"></rect><rect class="st10" x="261" y="282.1" transform="matrix(0.8704 -0.4924 0.4924 0.8704 -103.2246 173.4556)" width="33.5" height="1.3"></rect><rect class="st10" x="264.7" y="286.2" transform="matrix(0.8704 -0.4924 0.4924 0.8704 -104.7737 175.7739)" width="33.5" height="1.3"></rect><rect class="st10" x="269.8" y="289.9" transform="matrix(0.8704 -0.4924 0.4924 0.8704 -105.8931 178.7967)" width="33.5" height="1.3"></rect><path class="st11" d="M215.6,295.5l62.6-35.4c4.2-2.4,0.4-8.9-3.8-6.5L211.8,289C207.6,291.4,211.3,297.9,215.6,295.5L215.6,295.5z
		"></path><path class="st3" d="M253.1,171.4L202,200.3c-3.6,2-0.4,7.5,3.2,5.5l51-28.9C255.8,174.5,254.9,172.3,253.1,171.4z"></path><path class="st0" d="M235.6,193.4l-30.3,17.2c-3.5,2-0.4,7.5,3.2,5.5l28.9-16.4C237.3,197.5,236.7,195.3,235.6,193.4z"></path><path class="st4" d="M251.7,201.9c-0.1-0.8-0.6-4-1.7-4.1l-0.2-0.1l-43,24.4c-3.6,2-0.4,7.5,3.2,5.5l42-23.7
		C251.8,203.2,251.8,202.5,251.7,201.9z"></path><ellipse class="st3" cx="264.7" cy="169.2" rx="3" ry="4.1"></ellipse><ellipse class="st0" cx="268.6" cy="180.6" rx="3" ry="4.1"></ellipse><ellipse class="st4" cx="269.2" cy="193.4" rx="3" ry="4.1"></ellipse></g></svg>