<svg transform="scale(2)" version="1.1" id="Layer_1" xmlns="http://www.w3.org/2000/svg" xmlns:xlink="http://www.w3.org/1999/xlink" x="0px" y="0px" viewBox="0 0 500 500" xml:space="preserve" class="show_show__wrapper__graphic__5Waiy "><title>React</title><style type="text/css">
	.st0{fill:#124577;}
	.st1{fill:#F47A63;}
	.st2{fill:#FFFFFF;}
	.st3{fill:url(#SVGID_1_);}
	.st4{fill:url(#SVGID_00000168832694309847434490000015958129308617142192_);}
	.st5{fill:url(#SVGID_00000174587678605244328890000009577105983582968242_);}
	.st6{fill:url(#SVGID_00000075159990786389510140000015265052421683389587_);}
	.st7{fill:#68E1FD;}
	.st8{opacity:0.5;enable-background:new    ;}
	.st9{opacity:0.21;}
	.st10{fill:#42210B;}
	.st11{opacity:0.92;fill:#124577;enable-background:new    ;}
	.st12{fill:#F4A195;}
	.st13{fill:#FFB3A6;}
	.st14{fill:#66C652;}
</style><g id="Tablet"><path class="st0" d="M479.5,290.6l-5.9,3.5L221,149.5L29.3,264.8l-8.8-2.6v10.4c-0.3,2.2,0.8,4.3,2.7,5.4l241.8,138.9
		c7,4,15.5,4,22.5,0.1l186.9-105.1c3.7-2,5.6-6.2,4.8-10.3L479.5,290.6z"></path><path class="st1" d="M23.3,265.1l241.8,138.9c7,4,15.5,4,22.5,0.1l186.9-105c4.7-2.7,6.3-8.7,3.6-13.4c-0.9-1.5-2.1-2.7-3.6-3.6
		L221,136.7L23.2,255.6c-2.6,1.6-3.4,4.9-1.9,7.5C21.8,263.9,22.5,264.6,23.3,265.1z"></path><polygon class="st2" points="52,259.3 259.9,378.6 444.3,275 233.4,151.1 	"></polygon><ellipse class="st0" cx="374.7" cy="332.6" rx="9.2" ry="5"></ellipse></g><g id="Shadow"><linearGradient id="SVGID_1_" gradientUnits="userSpaceOnUse" x1="275.7539" y1="-1753.4827" x2="142.4739" y2="-1681.6726" gradientTransform="matrix(1 0 0 1 0 1999.96)"><stop offset="0" style="stop-color: rgb(145, 191, 239);"></stop><stop offset="1" style="stop-color: rgb(255, 255, 255);"></stop></linearGradient><path class="st3" d="M136.7,302.8c12.8,7.9,26.2,14.7,38.9,22.8l69.4-40.1l-4.3-13.4l-7.4-2.2l-55,3.8l-45,27.2l1,0.8
		C135.1,302,136,302.4,136.7,302.8z"></path><linearGradient id="SVGID_00000145058837846677779660000001646342332590722979_" gradientUnits="userSpaceOnUse" x1="412.614" y1="-1752.0927" x2="279.324" y2="-1680.2826" gradientTransform="matrix(1 0 0 1 0 1999.96)"><stop offset="0" style="stop-color: rgb(145, 191, 239);"></stop><stop offset="1" style="stop-color: rgb(255, 255, 255);"></stop></linearGradient><polyline points="316,276.7 201.5,345.7 
		237.2,365.6 377,287.5 378.4,275 371,272.9 	" style="fill: url(&quot;#SVGID_00000145058837846677779660000001646342332590722979_&quot;);"></polyline><linearGradient id="SVGID_00000003797242498721614610000001522649520598998934_" gradientUnits="userSpaceOnUse" x1="261.5677" y1="-1639.1494" x2="236.4177" y2="-1620.6694" gradientTransform="matrix(1 0 0 1 0 1999.96)"><stop offset="0" style="stop-color: rgb(145, 191, 239);"></stop><stop offset="1" style="stop-color: rgb(255, 255, 255);"></stop></linearGradient><path d="M254.8,375.6l11.5-9.6
		c-2.4-4.5-2.6-5.9-6.4-9.4l-2.6,3.8l-17.6,6.6C244.8,369.5,249.6,373.3,254.8,375.6z" style="fill: url(&quot;#SVGID_00000003797242498721614610000001522649520598998934_&quot;);"></path><linearGradient id="SVGID_00000158008249499349797290000017747705455839559584_" gradientUnits="userSpaceOnUse" x1="211.5006" y1="-1796.3088" x2="101.1506" y2="-1736.8489" gradientTransform="matrix(1 0 0 1 0 1999.96)"><stop offset="0" style="stop-color: rgb(145, 191, 239);"></stop><stop offset="1" style="stop-color: rgb(255, 255, 255);"></stop></linearGradient><path d="M83.8,273.1c7,4.2,17.8,8.4,24.9,12.5
		l78.1-47.5l-4.3-13.4l-7.5-2.2l-55,3.8l-50.6,34.7C75.6,265.6,77.3,269.1,83.8,273.1z" style="fill: url(&quot;#SVGID_00000158008249499349797290000017747705455839559584_&quot;);"></path></g><g id="Envelopes"><path class="st7" d="M117.9,173.3v96.3c0,3,2.4,5.5,5.5,5.6c1,0,2-0.2,2.8-0.7l129.4-74.5V98.8L117.9,173.3z"></path><path class="st8" d="M117.9,173.3c0,0,75.3,12.4,83.6,9.9s54.1-84.4,54.1-84.4L117.9,173.3z"></path><path class="st7" d="M177.4,207.7v106.1c0,3.4,2.8,6.2,6.2,6.2c1.1,0,2.1-0.3,3.1-0.8l136.7-78.8c3.7-2.1,5.9-6,5.9-10.2v-98.9
		c0-1.9-1.6-3.4-3.4-3.4c0,0,0,0,0,0c-0.6,0-1.1,0.1-1.6,0.4L177.4,207.7z"></path><path class="st8" d="M327.1,128c-0.8-0.2-1.6-0.2-2.3,0l-147.5,79.8c0,0,83.1,13.7,92.3,10.9c8.2-2.5,49.7-75.4,58.1-90.4
		C327.5,128.2,327.3,128.1,327.1,128z"></path><g class="st9"><path class="st0" d="M259.2,159c-16.4,9-32.8,18-49.2,27c-8.9,4.8-17.8,9.8-26.9,14.4c-3.5,1.8-6.9,3.4-8.4,7.3
			c-1,2.6-0.7,5.3-0.7,8l0.1,30.9c1.5-0.9,2.3-1.3,3.5-2v-23.5c0-2.9-0.2-6,0-8.9c0.3-5,3.6-6.8,7.6-8.9
			c19.6-10.1,38.8-20.9,58.1-31.5l19.3-10.6c0.2-0.1,0.4-0.3,0.5-0.5C261.8,160.3,260.5,159.7,259.2,159z"></path></g><path class="st2" d="M292.6,219.8L292.6,219.8c-0.1-0.6-0.6-1.2-1.2-1.2c0-0.7-0.6-1.3-1.3-1.2c0,0,0,0,0,0h-0.2
		c-1.5,0.3-3,0.5-4.5,0.6c-4.1-0.1-8-1.2-11.6-3.2c-0.3-0.5-0.8-0.9-1.2-1.2c-0.7-0.6-1.7-0.5-2.2,0.2c-0.2,0.2-0.3,0.5-0.4,0.8
		c-0.1,1.2,1.2,2.3,2.3,3.1c-1.3,0.3-2.6,0.6-3.9,1c-1.1,0.4-2.5,0.7-2.8,2c-0.2,0.7,0.2,1.4,0.9,1.6c0.2,0.1,0.4,0.1,0.6,0l0.4-0.1
		c-0.6,0.3-1.1,0.9-1.3,1.6c-0.2,0.7,0.2,1.4,0.9,1.5c0,0,0,0,0,0c0.1,0,0.2,0,0.3,0c0.5,0,1-0.1,1.5-0.2l-0.2,0.3
		c-0.4,0.5-0.3,1.3,0.2,1.7c0.3,0.3,0.8,0.3,1.2,0.2c0.6-0.1,1.2-0.3,1.7-0.4c-0.2,0.6,0.1,1.3,0.7,1.6c0.3,0.1,0.5,0.1,0.8,0
		c2.3-0.7,4.6-1.5,6.8-2.4c3.8-0.7,7.6-1.2,11.4-1.5c0.7-0.1,1.3-0.7,1.2-1.4c0-0.3-0.2-0.6-0.4-0.8l0.4-0.1
		C294.3,222.1,294,219.7,292.6,219.8z"></path><path class="st10" d="M273.4,220.5l-6.4,1.8c-0.1,0-0.2,0.2-0.2,0.3c0,0.2,0.2,0.2,0.4,0.2l6.4-1.8c0.1-0.1,0.2-0.2,0.1-0.4
		C273.6,220.6,273.5,220.5,273.4,220.5z"></path><path class="st10" d="M274.7,223.1c-1.9,0.6-3.8,1.2-5.8,1.8c-0.2,0-0.2,0.2-0.2,0.4c0,0.2,0.2,0.2,0.4,0.2l0,0
		c1.9-0.6,3.9-1.2,5.8-1.8c0.1-0.1,0.2-0.2,0.2-0.4C275,223.1,274.8,223.1,274.7,223.1z"></path><path class="st10" d="M276,225.2l-4,1.4c-0.3,0.1-0.2,0.7,0.1,0.6l4-1.4C276.5,225.6,276.4,225.1,276,225.2z"></path><path class="st11" d="M326.1,195c0,0-16.3,9.7-33.8-0.1l-0.8,12.8c0,0,19.3,7.7,32.9,4.5"></path><path class="st2" d="M292.1,197.6c-1-0.2-2-0.8-2.7-1.5c-0.6-0.7-0.8-1.6-1.3-2.4c-0.5-0.8-1.3-1.4-2.2-1.7c-1-0.2-1.8,0.9-1.6,1.8
		c0.3,0.9,0.9,1.8,1.7,2.4l0.2,0.2c-0.1,0.4-0.3,0.8-0.6,1.1c0,0.1-0.1,0.3-0.1,0.4c-0.8,1.4-1.9,2.7-2.7,4.1
		c-0.1,0.2-0.2,0.4-0.4,0.6l-0.2,0.5c1,0.2,2,0.3,3,0.4c2.1,0.5,4.3,0.7,6.5,0.6C291.9,202,292,199.9,292.1,197.6z"></path><path class="st10" d="M287.9,201.6c-2-0.9-2-2.9-1.6-4.8c0.1-0.4-0.5-0.5-0.5-0.1c-0.4,2.2-0.3,4.5,2,5.4
		C288.1,202.2,288.2,201.7,287.9,201.6z"></path><path class="st0" d="M303,274c0,0-0.2,6.2-1.5,7.2s-7.1,4.3-9.9,4.4s-2.5,3-0.9,4.7s14.2,1,15,0.1s4.3-6.5,3.8-6.6
		s-0.8,7.5-0.3,7.8c0.7,0.2,1.4,0.2,2.1,0.2l1.8-19.9"></path><path class="st12" d="M314.3,245.5c1.3,0.1,13.1,1.5,22.1-1.8c2.1-3.3,3.6-6.9,4.4-10.8c0.9-3.4,1.4-6.9,1.7-10.4l-9,0.4
		c-8.9,0.3-17.8,1.4-26.5,3.2c-5.1,1.1-10.9,2.3-14.5,6.4c-4.1,4.6-2.9,11-1.7,16.4c2,8.9,4.8,17.6,8.2,26l21.9-3.3
		C320.8,271.8,311.9,245.3,314.3,245.5z"></path><path class="st0" d="M385.5,281.4c0.4-0.3,0.8-0.6,1.1-1l-6.4-10.9l-9.5-4.8l-3.3,11.1c0,0,5.6,0.7,6.2,2.4
		c0.7,1.7,0.6,3.6-0.3,5.2c-0.9,1.2-2.3,2.1-3.3,3.3c-0.8,0.8-1.4,1.7-1.7,2.8c-0.3,1.5,1.7,2.5,4.7,2.2s5.8-3.9,6.5-4.4
		s0-11.8,1.1-11.5c0.8,0.2,1.9,3.5,2.8,5.2L385.5,281.4z"></path><path class="st13" d="M371,272.9c0.6-4.4,1-10.5-1.3-14.8l-34.2,3.1c0,0,16.6-16.8,12.2-36.9l-22.6,0.6c0,0-33.4,48.8-10.5,57.2
		c9.7,3.6,36.5,1.3,54.7-1.5C370.1,278,370.7,275.5,371,272.9z"></path><path class="st0" d="M325.5,194.9c0,0-17.6,19.6-42.7,20.1l0.5,13.2c0,0,24.2,2.8,39.3-9.7l2.5,6.4c0,0,12.8,6.1,22.9,1.4
		c0,0-0.4-28.1-20.5-37.4"></path><path class="st2" d="M315,182.2c0,0-0.7,12.6,5.5,14.2c7.1,1.7,11.8-8,8.6-13.5S316.6,178,315,182.2z"></path><path class="st1" d="M319,176.9c-2.5,0.8-4.6,2.6-5.6,5c-0.1,0.2-0.1,0.3-0.2,0.5c-0.1,0.5-0.1,1-0.1,1.5c0,1.3,0.8,2.4,2,2.9
		c-0.2-2.1,0.6-4.3,2.1-5.8c0,0-0.7,1.4,6,4.4c0,0,4.7,6.2,3.4,9.4c0.1-0.3,1-0.8,1.2-1c1-0.9,2-1.8,2.8-2.9
		C336.4,183.5,327.1,174.3,319,176.9z"></path><path class="st1" d="M317.2,181.1c0,0,0.2,5.8,7.1,6.8c4.2,0.6-4.6,8.3-0.5,10.7s12-2.9,13.8-6.9s-4.4-15.5-14.2-16.1
		c0,0-7.1-1.4-10,6.6"></path><path class="st10" d="M319.1,188.1c-0.2,0-0.3,0.1-0.3,0.3c0,0.1,0.1,0.3,0.2,0.3c0.1,0,0.3,0,0.3-0.2
		C319.4,188.3,319.3,188.1,319.1,188.1C319.1,188.1,319.1,188.1,319.1,188.1z"></path><path class="st10" d="M316,187.5h-0.2c-0.3,0.1-0.1,0.6,0.2,0.5h0.2c0.1-0.1,0.2-0.2,0.2-0.4C316.3,187.5,316.1,187.4,316,187.5z"></path><path class="st2" d="M327.1,187.9c-1.1-2-3.9,0.1-3.8,1.8c0,0.3,0.2,0.5,0.5,0.5h0.2c0,0.1,0,0.1,0.1,0.2c-0.1,0-0.3,0-0.4,0
		c-0.7-0.1-0.9,1-0.2,1.1C325.1,191.8,328.3,190,327.1,187.9z"></path><path class="st10" d="M318,191.2c-1.1,0-0.5-1.2-0.3-1.8s0.4-1.2,0.6-1.8c0.1-0.3-0.4-0.5-0.5-0.1c-0.2,0.6-0.4,1.2-0.6,1.8
		c-0.2,0.5-0.3,1-0.4,1.5c0,0.7,0.6,1,1.2,1c0.2,0,0.3-0.1,0.3-0.3C318.3,191.4,318.2,191.3,318,191.2L318,191.2z"></path><path class="st10" d="M320.7,191.2c-0.2,0.5-0.5,0.9-0.9,1.2c-0.6,0.2-1.2,0.3-1.8,0.2c-0.4,0-0.5,0.5-0.1,0.5
		c0.7,0.1,1.4,0.1,2.1-0.2c0.6-0.3,1.1-0.8,1.3-1.5C321.4,191.1,320.9,190.8,320.7,191.2z"></path></g><g id="Plant"><path class="st7" d="M251.4,350.4l2.6,12.2c0.2,0.8,0.7,1.5,1.5,1.9c1.6,0.8,4.7,1.5,10.8,0.4c1.1-0.2,2-1,2.2-2.1l2.7-12.4"></path><ellipse class="st0" cx="261.3" cy="350.4" rx="10" ry="4"></ellipse><path class="st14" d="M255.5,341.4c-0.5-0.2-0.9-0.6-1.2-1l-5.6-8.5c-2.6-4-3.5-32.3,3.3-32.6c5.4-0.3,11,12.1,12.9,15.8
		c2,3.4,3.6,7,4.8,10.7c1.6,5.6-2.1,10.5-5.6,14.9C262.5,342.7,257.8,342.6,255.5,341.4z"></path><path class="st0" d="M258.9,347c0.8,0.5,1.5,1,2.2,1.6c0.6-12.6-1.2-25.3-5.2-37.3c-0.5-1.4-2.7-0.7-2.2,0.7
		C257.4,323.3,259.2,335.1,258.9,347z"></path><path class="st14" d="M266.8,339.1c-0.1-0.3-0.2-0.7-0.1-1l0.8-6.4c0.4-3,11.6-17.3,15.1-14.8c2.8,2,0.4,10.4-0.2,12.9
		c-0.4,2.5-1.1,4.9-2,7.2c-1.5,3.4-5.4,4.3-8.9,5.1C269.7,342.6,267.4,340.6,266.8,339.1z"></path><path class="st0" d="M277.1,324.8c-5,8.3-9,17.2-11.9,26.4c0.6,0.3,1.1,0.6,1.6,1c2.9-9.3,6.9-18.2,12-26.6
		C279.4,324.6,277.7,323.8,277.1,324.8z"></path></g><g id="Chat"><path class="st1" d="M307.9,96.1l27.6-15.7c0.8-0.5,1.8-0.2,2.3,0.6c0.1,0.3,0.2,0.5,0.2,0.8v21.9c0,0.9-0.5,1.7-1.2,2.1
		l-27.6,15.7c-0.7,0.4-1.7,0.2-2.1-0.6c-0.1-0.2-0.2-0.5-0.2-0.8V98.2C306.8,97.3,307.2,96.6,307.9,96.1z"></path><path class="st1" d="M312.9,118v7.5l7.2-12.3"></path><path class="st2" d="M313.1,103.8L333.3,92c0.9-0.5,1.2-1.6,0.7-2.5c-0.5-0.9-1.6-1.2-2.5-0.7l-20.2,11.8c-0.9,0.5-1.2,1.6-0.6,2.5
		C311.1,104.1,312.2,104.4,313.1,103.8L313.1,103.8z"></path><path class="st2" d="M313.6,110.5l20.2-11.8c0.9-0.4,1.3-1.5,0.8-2.4c-0.4-0.9-1.5-1.3-2.4-0.8c-0.1,0-0.2,0.1-0.3,0.2l0,0
		l-20.2,11.8c-0.8,0.6-1,1.7-0.5,2.5C311.9,110.6,312.8,110.9,313.6,110.5L313.6,110.5z"></path></g><ellipse class="st1" id="Notification" transform="matrix(0.1078 -0.9942 0.9942 0.1078 -46.4901 368.1361)" cx="181.9" cy="210" rx="15.6" ry="13.4"></ellipse></svg>